<svg xmlns="http://www.w3.org/2000/svg" viewBox="0 0 555.09 318.07"><defs><style>.cls-1{fill:#fefefe;}.cls-2{fill:#e9edf0;}.cls-3{fill:#db9291;}.cls-4{fill:#f4a6b4;}.cls-5{fill:#fae2b8;}.cls-6{fill:#6ccdd7;}.cls-7{fill:#b993a4;}.cls-8{fill:#f4a7b5;}.cls-9{fill:#bfcea8;}.cls-10{fill:#f6f6f6;}.cls-11{fill:#f1f1f1;}.cls-12{fill:#908f92;}.cls-13{fill:#948f8f;}.cls-14{fill:#f29b98;}.cls-15{fill:#f4f8f9;}</style></defs><title>Recurso 4</title><g id="Capa_2" data-name="Capa 2"><g id="Capa_1-2" data-name="Capa 1"><path class="cls-1" d="M.05,315.05Q.05,158.68,0,2.3C0,.42.42,0,2.3,0Q277.55.08,552.8,0c1.87,0,2.29.42,2.29,2.3q-.08,156.38,0,312.75c-2.49,1.72-5.31,1.51-8.13,1.51H8.17C5.35,316.56,2.53,316.77.05,315.05Zm219.29-33.54a.18.18,0,0,0,.17-.18l.46-.77,0-.15a6.07,6.07,0,0,0,0-5.28,2.27,2.27,0,0,0-2.91-1.61l-.53,0c-1.81,0-1.53,2.17-2.87,2.76-.26-1.65-1-2.86-2.76-3-2.09-.17-2.78,1.38-3.4,2.94-1.35-3.15-4.19-4.11-5.77-1.91-.4.55-1.06,1.39-.34,2,.91.75,1.19-.23,1.57-.87.51-.88,1.21-1.14,2-.37s.52,1.51-.25,2.09-2,1.24-2.82,2-1.37,1.69-.64,2.64,5.6-.06,6.21-1.3c1.08.77,1.84,2,3.5,1.82s2.08-1.84,3.08-2.85c1.62,2.81,2,3,4.42,2.5A.77.77,0,0,0,219.34,281.51Zm-158.75-.19a.18.18,0,0,0,.16.19.78.78,0,0,0,.8.5h.05l.56.07c2,.54,2.94-.77,3.63-2.41,2.36,2.83,3.81,3.33,5.38,2s1.78-6,.16-7.59a3.08,3.08,0,0,0-2-.77c-2.07-.11-2.41,1.9-3.54,3.14-.32-1.8-1-3-2.89-3-1.51,0-2.58.5-2.81,2.14a5.6,5.6,0,0,0,0,4.86l0,.13A.75.75,0,0,0,60.59,281.32Zm86.55-2.78-.06.21c-1.27-.73-.61-2.08-1-3.12a3,3,0,0,0-2.6-2.3,2.73,2.73,0,0,0-3,1.77c-.25.58-.25,1.33-1,1.58,0-1.8-.67-3.1-2.63-3.32-2.52-.28-3,1.67-3.72,3.53,0-1.74-.46-3.07-2.23-3.53a3,3,0,0,0-3.35,1.05c-.44.58-1,1.44-.19,2s1-.32,1.4-.88c.48-.73,1.14-1.34,2-.48s.48,1.67-.34,2.29-1.83,1.15-2.66,1.84a2.22,2.22,0,0,0-.8,2.47c.34.84,1.33.31,2,.4a6,6,0,0,0,1.74,0c.74-.12,2,.52,2.08-.62s-1.24-.62-2-.8c-.56-.15-1.34.38-1.75-.63l4-2.53c.56,2.28.46,4.93,3.5,4.87,2-.05,2.79-1.55,2.84-3.44.14.08.34.12.4.24,2.11,4.21,3.16,4.33,6.18.81.64-.75.64.32,1,.47.77,2.14,2.41,2.34,4.2,1.66a2.48,2.48,0,0,0,1.38-3.85c-.46-.84-.12-1.36,0-2a2.11,2.11,0,0,0-.92-2.39,3.1,3.1,0,0,0-3.31-.17,2.33,2.33,0,0,0-1.32,2.47c.07.65.63,1.2.38,1.91Zm28.44-84.45a1.75,1.75,0,0,0-.4,0c-7.13-7.6-14.4-15.1-23.26-20.68-8-5.06-11.9-4.95-18.92.26s-12.51,11.71-17.9,18.36C104.87,204.68,95.62,218,86.33,231.31c-6.1,8.73-12.19,17.46-18.72,25.89-.32.41-2.18,1.11-.1,1.81h1.08c1.58,0,3.16.06,4.75.06H506.72a12.33,12.33,0,0,1,1.49,0c1.42.17,1.88-.42,1.86-1.84-.07-4.91,0-9.83,0-14.74a2.64,2.64,0,0,0-.56-1.86c-1.1-2-2.21-4.09-3.3-6.14-7-13.17-13.55-26.55-20.05-40-6-12.37-12.14-24.64-18.62-36.75-3.1-5.78-6.32-11.49-9.49-17.23h51.42V140H457.57c-1.17-1.81-2.33-3.62-3.51-5.43A75.56,75.56,0,0,0,442.21,120c-4.21-3.87-7.82-4.43-11.86-1.77a22.4,22.4,0,0,0-3.47,2.82,101.48,101.48,0,0,0-12,15.19c-.6.89-.85,2.28-2.33,2.34q-5.76-14.34-11.52-28.67c-6.49-16.11-13.25-32.11-21.59-47.38-2.83-5.18-5.87-10.24-10.14-14.43s-7.74-4-11.27.94a70.92,70.92,0,0,0-7.53,14.87c-2.21,5.54-4.27,11.14-6.4,16.72-.66,0-1.33,0-2,0H68.66a2.91,2.91,0,0,0-2.37.49H344c-.09.4-.16.81-.28,1.2-3.64,11.73-7.31,23.44-10.92,35.17C330.51,125,328.28,132.5,326,140H66.63v.51h2.69q58.35,0,116.7,0l139.93,0c-.63,2.23-1.27,4.46-1.9,6.69l-6,21.3-.44.07c-6.5-5.72-13.17-11.19-21.12-14.87-5.09-2.36-9.83-2.2-14.62,1-5.48,3.65-9.85,8.42-14.22,13.2-7.07,7.74-13.37,16.11-20.11,24.11a13.15,13.15,0,0,1-.94-1.44C242,181.3,237.27,172,232,163c-3.45-5.89-6.93-11.77-11.87-16.59-4-3.89-6.84-4.15-11.45-.94a32.65,32.65,0,0,0-6.79,6.59C191.6,165.12,183.53,179.57,175.58,194.09ZM509.68,21.87l0-.5H66.4v.5ZM40.31,82.61c.7,1.78,1.73,3.2,3.86,2.62s2.36-2.55,2.37-4.42,0-3.88-2.33-4.39c-3.62-.79-3.42,2.55-4.36,4.69-1.11-.91-.24-1.71-.27-2.44-.06-1.76-1.16-2.31-2.6-2.39s-2.64.35-3,2c-.09.41-.19.87.23,1.11a.71.71,0,0,0,1.06-.3c.44-.87.89-1.67,2-1.14.27.12.61.44.62.68.06,1.26-1.19,1.13-1.85,1.65-.09.08-.07.3-.13.59.35.15.71.32,1.08.45.68.22,1.23.55,1.15,1.38a1.43,1.43,0,0,1-.88,1.12,1.29,1.29,0,0,1-1.74-.48c-.46-.56-.73-1.93-1.7-.86-.72.8.11,1.71.84,2.29C36.56,86.21,38.76,85.37,40.31,82.61Zm-.06,56.07c-.51-1.74-1.37-2.92-3.13-2.94a2.88,2.88,0,0,0-2.76,1.35c-.33.58-.77,1.34-.16,1.81s1.15,0,1.46-.76a1.26,1.26,0,0,1,1.56-.9,1.32,1.32,0,0,1,1,1.06,1.61,1.61,0,0,1-.88,1.64c-.75.52-1.58.92-2.3,1.48a2.5,2.5,0,0,0-1.12,2.6c.32,1,1.43.46,2.19.52a24.69,24.69,0,0,0,3,0c.44,0,.87-.16.85-.68s-.41-.69-.86-.72L36.2,143l-.12-.48L40,140c.65,2.22.49,5,3.7,4.88,2-.09,2.74-1.73,2.82-3.51.09-2,.5-4.38-2-5.33C42.24,135.17,41.08,136.6,40.25,138.68Zm6.32-117.8c-.1-1.62-.17-3.72-2.69-4s-3.28,1.43-3.53,3.54c0,.25-.07.5-.12.74-.08.4-.13.86-.68.84s-.64-.46-.65-.88c0-1,0-2,0-3,0-.51,0-1.05-.61-1.23s-.94.21-1.24.62c-1,1.34-2,2.66-2.91,4-.79,1.18-.73,2,1,2,.8,0,2-.49,2.12,1,.06.53.25,1,.9.94s.56-.68.77-1.11c.55-1.16,1.13-1.73,2-.1a2.66,2.66,0,0,0,4,1.12C46.5,24.51,46.53,22.83,46.57,20.88ZM509.38,81l.1-.25H390.21V81ZM227,277.7c0-.44,0-.77,0-1.1-.1-1.9-.93-3.27-3-3.31a2.71,2.71,0,0,0-3,2.9c-.08,2.08,1,3.05,3,3.09.38,0,.9-.28,1,.27a1.16,1.16,0,0,1-.66,1.24,1.06,1.06,0,0,1-1.53-.28c-.4-.49-.82-1.4-1.5-.61s.09,1.61.77,2a2.77,2.77,0,0,0,4.09-1A4.88,4.88,0,0,0,227,277.7Zm291.87-.28a4.55,4.55,0,0,0,.55.63c.74.43,1.94.3,2,1.56a1.38,1.38,0,0,1-1.07,1.25c-1.15.38-1.63-.38-2-1.28a.76.76,0,0,0-1.24-.3c-.45.37-.31.92-.08,1.38.85,1.72,2.29,2,4,1.52a2.68,2.68,0,0,0,2-3.48c-.15-.74-.85-1.26-.39-2.26a2,2,0,0,0-1-2.77,3.21,3.21,0,0,0-3.73.33c-.64.55-1.26,1.47-.58,2.16.87.88,1.09-.28,1.52-.8a1.26,1.26,0,0,1,1.54-.5c.38.18.72.41.72.91,0,.73-.56.94-1.11,1.17C519.66,277.05,519.39,277.2,518.91,277.42ZM46.55,199.28a5.73,5.73,0,0,0-.5-2.92,2.67,2.67,0,0,0-3.35-1.44c-2.29.62-2.39,2.62-2.4,4.42s.13,3.79,2.44,4.4A2.65,2.65,0,0,0,46,202.19,5.81,5.81,0,0,0,46.55,199.28ZM301,277.8a5.75,5.75,0,0,0-.48-2.92,2.67,2.67,0,0,0-3.33-1.47c-2.3.6-2.42,2.6-2.43,4.4s.11,3.79,2.41,4.42a2.65,2.65,0,0,0,3.31-1.51A5.64,5.64,0,0,0,301,277.8Zm144,2.47c.72-1,1.8-1.33,2.64-1.94a2.67,2.67,0,0,0,1.22-3,2.64,2.64,0,0,0-2.53-2.06,2.91,2.91,0,0,0-3,1.34c-.34.57-.77,1.34-.16,1.8s1.15,0,1.46-.76.77-1.15,1.56-.9a1.3,1.3,0,0,1,.94,1.06,1.61,1.61,0,0,1-.88,1.65c-.75.51-1.58.91-2.3,1.47a2.47,2.47,0,0,0-1.1,2.6c.32,1,1.47.6,2.17.49,1.29-.19,3.53.89,3.64-.67S446.41,281.12,445,280.27Zm-19.95,0c.67-1.06,1.7-1.3,2.49-1.87,1.54-1.11,1.92-2.49.82-4.07a3.21,3.21,0,0,0-4.47-.39c-.7.62-1.47,1.63-.77,2.34,1,1,1.24-.37,1.7-1s1.17-.95,1.89-.25a1.22,1.22,0,0,1,0,1.95,23.6,23.6,0,0,1-2.28,1.5c-1,.69-1.89,1.71-1.6,2.88s1.71.65,2.57.61c1.15-.05,3.23.68,3.26-.54.05-1.63-2-.47-3-.88C425.52,280.53,425.39,280.44,425.08,280.27Zm-73.52,0c.66-1,1.74-1.31,2.58-1.9a2.69,2.69,0,0,0,1.26-3,2.63,2.63,0,0,0-2.49-2.1,2.9,2.9,0,0,0-3.15,1.5c-.27.5-.63,1.2-.1,1.6.7.52,1.16.05,1.48-.69s.74-1.16,1.53-.95a1.29,1.29,0,0,1,1,1c.17.9-.38,1.38-1,1.8a8.94,8.94,0,0,0-2.62,1.86,2.46,2.46,0,0,0-.64,2.07c.28,1,1.25.51,1.92.56,1.07.08,2.15,0,3.23,0,.43,0,.88-.13.89-.65s-.38-.69-.82-.76C353.63,280.48,352.62,280.89,351.56,280.26ZM47.05,80.91c0,1.43.1,2.91,1.35,3.85a2.74,2.74,0,0,0,3.84-.3c1.47-1.43,1.54-5.75.12-7.23a2.73,2.73,0,0,0-3.83-.37C47.2,77.83,47.08,79.39,47.05,80.91Zm0,177.85c.06,1.62.07,3.28,1.66,4.2a2.73,2.73,0,0,0,3.61-.59c1.36-1.44,1.42-5.54.13-7.05a2.73,2.73,0,0,0-3.61-.66C47.26,255.52,47.13,257.18,47.05,258.76Zm0-118.35c0,1.43.1,2.91,1.35,3.85a2.74,2.74,0,0,0,3.84-.3c1.47-1.42,1.54-5.75.12-7.23a2.73,2.73,0,0,0-3.83-.37C47.2,137.33,47.08,138.89,47.05,140.41ZM287.87,278.1c0-3.12-1.07-4.7-3-4.81s-3.2,1.43-3.32,4.12c-.14,3.06.93,4.9,2.93,4.95a2.78,2.78,0,0,0,2.68-1.49A6.57,6.57,0,0,0,287.87,278.1ZM53.38,198.84c-.06-.32-.16-1-.3-1.62a2.73,2.73,0,0,0-2.75-2.41A2.78,2.78,0,0,0,47.41,197a7.48,7.48,0,0,0,.13,5.11,2.57,2.57,0,0,0,2.52,1.71,2.73,2.73,0,0,0,2.65-1.54A7.68,7.68,0,0,0,53.38,198.84Zm450.18,79.07c0,1.43.09,2.9,1.34,3.85a2.74,2.74,0,0,0,3.84-.29c1.47-1.43,1.54-5.75.12-7.24a2.73,2.73,0,0,0-3.83-.37C503.7,274.82,503.57,276.38,503.56,277.91ZM47.05,21.4c0,1.86.43,3.24,1.33,3.86A2.8,2.8,0,0,0,52.23,25c1.48-1.42,1.56-5.74.14-7.23a2.73,2.73,0,0,0-3.83-.39C47.2,18.31,47.08,19.87,47.05,21.4Zm230.1,258.94c.65-1.12,1.78-1.34,2.6-2,1.51-1.17,1.8-2.58.67-4.1A3.18,3.18,0,0,0,276,274c-.64.64-1.41,1.6-.55,2.35s1.09-.48,1.51-1,1.1-1.09,1.88-.38a1.26,1.26,0,0,1-.06,2.12c-.83.68-1.81,1.17-2.66,1.82a2.44,2.44,0,0,0-1.06,2.62c.33,1,1.48.57,2.17.46,1.26-.21,3.47.95,3.57-.71C280.83,279.91,278.47,281.1,277.15,280.34Zm221.75-.15c1.17-.76,2.08-1.32,3-1.92a2.75,2.75,0,0,0-1.51-5,2.81,2.81,0,0,0-2.93,1.45c-.3.57-.72,1.3.06,1.75s1-.2,1.25-.78.76-1.15,1.54-1a1.34,1.34,0,0,1,1,1c.22.9-.4,1.37-1,1.8s-1.55,1-2.27,1.51a2.4,2.4,0,0,0-1,2.42c.27,1.18,1.38.5,2.1.59a20.86,20.86,0,0,0,2.74,0c.47,0,1.09.06,1.13-.63s-.51-.73-1-.79C501.05,280.52,500.13,280.85,498.9,280.19Zm-443.79.13c.76-1.09,1.85-1.38,2.7-2A2.75,2.75,0,0,0,59,275.28a2.57,2.57,0,0,0-2.3-2,3,3,0,0,0-3.09,1.14c-.41.59-.94,1.44-.16,2s1-.33,1.39-.88c.48-.73,1.14-1.34,2-.49s.49,1.67-.33,2.29-1.57.93-2.29,1.48a2.52,2.52,0,0,0-1.18,2.8c.34.93,1.48.47,2.22.41,1.24-.09,3.48.62,3.5-.53,0-1.75-2.15-.43-3.24-.95Zm307-2.91c-.08-1.35.13-3.33-2.24-4a2.53,2.53,0,0,0-3.07,1,7.15,7.15,0,0,0-.3,6.22,2.54,2.54,0,0,0,2.76,1.68,2.68,2.68,0,0,0,2.35-1.59A7.1,7.1,0,0,0,362.1,277.41Zm73.46.23c0-.42,0-.83,0-1.24-.16-1.79-1-3-2.91-3.06s-2.83,1.19-3,2.93a8.65,8.65,0,0,0,.26,4.16,2.7,2.7,0,0,0,2.62,1.92,2.73,2.73,0,0,0,2.71-1.79A6.48,6.48,0,0,0,435.56,277.64ZM76.91,275.29a16.41,16.41,0,0,0-2.44,4.9c-.17.63-.86,1.52.36,1.81.91.2,1-.61,1.18-1.26a14.2,14.2,0,0,1,2-4.52c.47-.73,1.56-1.38,1-2.35-.45-.78-1.58-.46-2.3-.3-1.24.26-3.43-1-3.52.73C73.12,275.7,75.45,274.54,76.91,275.29Zm363.56,2.5h0a11.09,11.09,0,0,0,0-1.73c-.12-.84.54-2.08-.54-2.43s-1.5,1.07-2.44,1.41c-.61.22-.52.9.14,1,1.43.18,1.08,1.21,1.11,2.06s0,2,0,3c0,.53.2,1,.86,1s.83-.45.83-1C440.48,279.94,440.47,278.87,440.47,277.79Zm-77.47-2c2.83,0,2.18,1.66,2.24,3,0,.66,0,1.33,0,2s0,1.25.78,1.29c1,.05.93-.74.94-1.39,0-1.24.09-2.48,0-3.72-.1-1.09.65-2.71-.49-3.16S364.57,274.87,363,275.75Zm147.94-.24c2.17.32,2.2,1.66,2.07,3.13a13.22,13.22,0,0,0,0,2c0,.53-.18,1.3.68,1.34,1.06,0,.82-.83.84-1.43a31.83,31.83,0,0,0,0-3.24c-.08-1.21.62-2.9-.37-3.52C513,273.05,512.44,275.19,510.94,275.51Zm-142.06.07c2.8,0,2.11,1.74,2.17,3.05,0,.83,0,1.66,0,2.49,0,.43.16.81.68.86.68.07.83-.39.84-.93,0-1.24.06-2.48,0-3.72s.6-2.93-.33-3.53C371.12,273.07,370.51,275.17,368.88,275.58ZM34.3,197.12c2.6-.12,2.19,1.47,2.2,2.78a8.22,8.22,0,0,0,0,1.49c.13.73-.53,2,.69,2s.75-1.2.82-1.91a15.67,15.67,0,0,0,0-2.74c-.1-1.21.64-2.9-.39-3.51S35.9,196.65,34.3,197.12ZM289,275.63c1.91.17,2.13,1.25,2,2.64a14,14,0,0,0,0,2.24c0,.59-.26,1.53.8,1.46s.7-1,.72-1.56a21.9,21.9,0,0,0,0-3.24c-.11-1.19.7-2.89-.46-3.43C291.06,273.26,290.24,275,289,275.63Z"/><path class="cls-2" d="M.05,315.05c2.48,1.72,5.3,1.51,8.12,1.51H546.92c2.82,0,5.64.21,8.13-1.51v2.5l-.5.5H.55l-.5-.5Z"/><path class="cls-1" d="M.05,317.55l.5.5C.12,318.14,0,318,.05,317.55Z"/><path class="cls-1" d="M554.55,318.05l.5-.5C555.14,318,555,318.14,554.55,318.05Z"/><path class="cls-3" d="M509.49,240.63a2.64,2.64,0,0,1,.56,1.86c0,4.91-.05,9.83,0,14.74,0,1.42-.44,2-1.86,1.84a12.33,12.33,0,0,0-1.49,0H73.34c-1.59,0-3.17,0-4.75-.06a4.14,4.14,0,0,1,1.12-.42c7-.35,13.92-.89,20.88-1a214.46,214.46,0,0,0,35.88-3.13c8-1.45,15.22-4,20.07-11.47,5-7.66,10.06-15.26,14.59-23.2,2.59-4.53,5.44-8.92,7.39-13.8v0c.45-.16.54-.54.58-.95h0l.45-.53,1.48-2a1,1,0,0,0,.55-1h0c2.4-1.08,3.82-3.22,5.51-5.07l.94,0c5,6,10.78,11.29,16.49,16.6a56.56,56.56,0,0,0,11,8.09c4.2,2.34,8.42,3.37,13,.67a39.59,39.59,0,0,0,7.4-5.43,178.14,178.14,0,0,0,15.87-17.19c1.07-1.33,1.7-3.36,3.8-3.72a7.62,7.62,0,0,1,2.09,2.07A17.55,17.55,0,0,0,252.1,202l.5.93.43.6,2,3c-.07,2,1.44,3.32,2.23,4.93a191.86,191.86,0,0,0,15.11,25.8,33.06,33.06,0,0,0,9,9.2c2.55,1.64,5.09,1.63,7.15-.31a14.22,14.22,0,0,0,4.58-7l.44-.11c7.84,2.26,15.84,1.71,23.72.83a111.33,111.33,0,0,0,27.65-6.81c12.31-4.71,21.92-12.3,28.12-24,5.74.66,11.47,1.6,17.24,1.92q14.38.81,28.79,1.52a98.42,98.42,0,0,1,25.31,4.44c19,6.11,37.43,13.62,56,20.72,2.11.8,4.09,2.51,6.65,1.85l1,.54.57.48Z"/><path class="cls-4" d="M318.05,168.56l6-21.3c.63-2.23,1.27-4.46,1.9-6.69,0-.18.05-.35.07-.53,2.26-7.54,4.49-15.09,6.81-22.62,3.61-11.73,7.28-23.44,10.92-35.17.12-.39.19-.8.28-1.2a3.69,3.69,0,0,0,.11-.45c2.13-5.58,4.19-11.18,6.4-16.72A70.92,70.92,0,0,1,358.07,49c3.53-5,6.88-5.23,11.27-.94s7.31,9.25,10.14,14.43c8.34,15.27,15.1,31.27,21.59,47.38q5.78,14.34,11.52,28.67c.14.34.28.68.43,1-1.23.66-1.37,2-2,3.06-11.2,18.08-20.69,37.13-31.32,55.53-2.05,3.56-3.8,7.36-6.66,10.42A34.85,34.85,0,0,1,357.24,203c-9.69-6.24-17.64-14.54-26.14-22.19C326.66,176.82,322.39,172.65,318.05,168.56Z"/><path class="cls-5" d="M413,139.57c-.15-.34-.29-.68-.43-1,1.48-.06,1.73-1.45,2.33-2.34a101.48,101.48,0,0,1,12-15.19,22.4,22.4,0,0,1,3.47-2.82c4-2.66,7.65-2.1,11.86,1.77a75.56,75.56,0,0,1,11.85,14.64c1.18,1.81,2.34,3.62,3.51,5.43l.46.51c3.17,5.74,6.39,11.45,9.49,17.23,6.48,12.11,12.64,24.38,18.62,36.75,6.5,13.41,13.06,26.79,20.05,40,1.09,2,2.2,4.09,3.3,6.14l-.88-.11L508,240l-1-.54c-.27-.57-.81-.8-1.3-1.12-9.74-6.53-20.22-11.82-30.16-18-12.72-7.92-25.15-16.2-35.37-27.35a66.82,66.82,0,0,1-11-16.22C423.35,164.6,418.14,152.1,413,139.57Z"/><path class="cls-6" d="M171,202.54l-1.48,2-.45.53h0a.92.92,0,0,0-.58.95v0a2.58,2.58,0,0,0-1.81,1.21c-4.77,5.59-10.15,10.57-15.37,15.72a65.34,65.34,0,0,1-19.93,13.9c-17.36,7.52-35.55,12.55-53.52,18.27-3.52,1.12-7.26,1.69-10.38,3.9-2.08-.7-.22-1.4.1-1.81,6.53-8.43,12.62-17.16,18.72-25.89,9.29-13.31,18.54-26.63,28.77-39.25,5.39-6.65,11-13.19,17.9-18.36s10.89-5.32,18.92-.26c8.86,5.58,16.13,13.08,23.26,20.68-.76,2.7-3,4.7-3.6,7.45h0A1,1,0,0,0,171,202.54Z"/><path class="cls-6" d="M252.6,203l-.5-.93a85.32,85.32,0,0,0-4.61-9.47c0-.17,0-.33,0-.5,6.74-8,13-16.37,20.11-24.11,4.37-4.78,8.74-9.55,14.22-13.2,4.79-3.18,9.53-3.34,14.62-1,7.95,3.68,14.62,9.15,21.12,14.87a12.29,12.29,0,0,1-.25,1.72c-2.09,7-4.13,14-6.34,21-5.12,16.16-9.91,32.44-17.45,47.72l-.44.1a28.07,28.07,0,0,1-11.05-4.9c-6.61-5-12-11.15-17.57-17.23-3.18-3.49-5.88-7.4-9.47-10.52l-2-3Z"/><path class="cls-7" d="M293.57,239.06c7.54-15.28,12.33-31.56,17.45-47.72,2.21-7,4.25-14,6.34-21a12.29,12.29,0,0,0,.25-1.72l.44-.07c4.34,4.09,8.61,8.26,13.05,12.24,8.5,7.65,16.45,15.95,26.14,22.19A34.85,34.85,0,0,0,373,208.58c0,.16,0,.31,0,.47-6.2,11.73-15.81,19.32-28.12,24a111.33,111.33,0,0,1-27.65,6.81C309.41,240.77,301.41,241.32,293.57,239.06Z"/><path class="cls-8" d="M247.54,192.05c0,.17,0,.33,0,.5l-2,2c-5.08-5-10.12-10-15.24-15A42.68,42.68,0,0,0,220,171.85c-3.35-1.68-6.72-2.38-10.53-1.12-4.28,1.42-7.78,4-11.35,6.51-6.68,4.69-12,10.87-18.18,16.18a4.81,4.81,0,0,0-1.92,3.1l-.94,0c0-1.1-1.18-1.5-1.51-2.41,7.95-14.52,16-29,26.33-42a32.65,32.65,0,0,1,6.79-6.59c4.61-3.21,7.47-2.95,11.45.94,4.94,4.82,8.42,10.7,11.87,16.59,5.25,9,9.94,18.27,14.58,27.58A13.15,13.15,0,0,0,247.54,192.05Z"/><path class="cls-9" d="M67.51,259c3.12-2.21,6.86-2.78,10.38-3.9,18-5.72,36.16-10.75,53.52-18.27a65.34,65.34,0,0,0,19.93-13.9c5.22-5.15,10.6-10.13,15.37-15.72a2.58,2.58,0,0,1,1.81-1.21c-2,4.88-4.8,9.27-7.39,13.8-4.53,7.94-9.6,15.54-14.59,23.2-4.85,7.46-12.1,10-20.07,11.47a214.46,214.46,0,0,1-35.88,3.13c-7,.08-13.92.62-20.88,1a4.14,4.14,0,0,0-1.12.42Z"/><path class="cls-10" d="M509.68,21.87H66.4v-.5H509.7Z"/><path class="cls-11" d="M344.14,80.6a3.69,3.69,0,0,1-.11.45H66.29a2.91,2.91,0,0,1,2.37-.49H342.14C342.81,80.55,343.48,80.58,344.14,80.6Z"/><path class="cls-2" d="M326,140c0,.18,0,.35-.07.53l-139.93,0q-58.35,0-116.7,0H66.63V140Z"/><path class="cls-12" d="M40.31,82.61c-1.55,2.76-3.75,3.6-5.6,2.15-.73-.58-1.56-1.49-.84-2.29,1-1.07,1.24.3,1.7.86a1.29,1.29,0,0,0,1.74.48,1.43,1.43,0,0,0,.88-1.12c.08-.83-.47-1.16-1.15-1.38-.37-.13-.73-.3-1.08-.45.06-.29,0-.51.13-.59.66-.52,1.91-.39,1.85-1.65,0-.24-.35-.56-.62-.68-1.16-.53-1.61.27-2,1.14a.71.71,0,0,1-1.06.3c-.42-.24-.32-.7-.23-1.11.36-1.64,1.58-2.08,3-2s2.54.63,2.6,2.39c0,.73-.84,1.53.27,2.44.94-2.14.74-5.48,4.36-4.69,2.31.51,2.34,2.53,2.33,4.39s-.13,3.81-2.37,4.42S41,84.39,40.31,82.61ZM42,80.53c0,1.53-.11,3.25,1.4,3.28,1.68,0,1.6-1.73,1.62-3a6.4,6.4,0,0,0-.19-1.69c-.17-.64-.46-1.35-1.22-1.37s-1.27.68-1.46,1.41A7.31,7.31,0,0,0,42,80.53Z"/><path class="cls-12" d="M40.25,138.68c.83-2.08,2-3.51,4.21-2.69,2.54.95,2.13,3.3,2,5.33-.08,1.78-.77,3.42-2.82,3.51-3.21.13-3-2.66-3.7-4.88l-3.9,2.58.12.48,2.83.13c.45,0,.83.24.86.72s-.41.67-.85.68a24.69,24.69,0,0,1-3,0c-.76-.06-1.87.52-2.19-.52a2.5,2.5,0,0,1,1.12-2.6c.72-.56,1.55-1,2.3-1.48a1.61,1.61,0,0,0,.88-1.64,1.32,1.32,0,0,0-1-1.06,1.26,1.26,0,0,0-1.56.9c-.31.72-.79,1.27-1.46.76s-.17-1.23.16-1.81a2.88,2.88,0,0,1,2.76-1.35C38.88,135.76,39.74,136.94,40.25,138.68ZM42,140c.12,1.43-.2,3.29,1.53,3.26S45,141.47,45,140.15a6.37,6.37,0,0,0-.24-1.68c-.18-.64-.5-1.32-1.29-1.27a1.56,1.56,0,0,0-1.31,1.3A9.87,9.87,0,0,0,42,140Z"/><path class="cls-12" d="M46.57,20.88c0,1.95-.07,3.63-1.64,4.54a2.66,2.66,0,0,1-4-1.12c-.87-1.63-1.45-1.06-2,.1-.21.43-.11,1-.77,1.11s-.84-.41-.9-.94c-.16-1.48-1.32-1-2.12-1-1.75,0-1.81-.87-1-2,.92-1.38,1.93-2.7,2.91-4,.3-.41.69-.8,1.24-.62s.61.72.61,1.23c0,1,0,2,0,3,0,.42.1.87.65.88s.6-.44.68-.84c.05-.24.09-.49.12-.74.25-2.11,1-3.86,3.53-3.54S46.47,19.26,46.57,20.88ZM42,22.08c.05.56-.14,2.26,1.46,2.24S45,22.66,45,21.42a5,5,0,0,0,0-1.23c-.19-.87-.35-2-1.48-2s-1.38,1-1.45,2C42,20.62,42,21,42,22.08Z"/><path class="cls-12" d="M139.52,278.89c-.05,1.89-.82,3.39-2.84,3.44-3,.06-2.94-2.59-3.5-4.87l-4,2.53c.41,1,1.19.48,1.75.63.72.18,2-.43,2,.8s-1.34.5-2.08.62a6,6,0,0,1-1.74,0c-.7-.09-1.69.44-2-.4a2.22,2.22,0,0,1,.8-2.47c.83-.69,1.8-1.19,2.66-1.84s1.25-1.41.34-2.29-1.54-.25-2,.48c-.36.56-.63,1.43-1.4.88s-.25-1.42.19-2a3,3,0,0,1,3.35-1.05c1.77.46,2.27,1.79,2.23,3.53.68-1.86,1.2-3.81,3.72-3.53,2,.22,2.62,1.52,2.63,3.32C139.52,277.42,139.52,278.15,139.52,278.89Zm-1.49-1.2c0-1.22.19-2.92-1.44-2.92s-1.56,1.64-1.55,2.91a12.2,12.2,0,0,0,.05,1.48c.12.88.51,1.73,1.46,1.73s1.36-.84,1.46-1.72A10.43,10.43,0,0,0,138,277.69Z"/><path class="cls-13" d="M218.54,282c-2.38.54-2.8.31-4.42-2.5-1,1-1.36,2.65-3.08,2.85s-2.42-1.05-3.5-1.82h0c0-1.42,0-2.85,0-4.27v0c.62-1.56,1.31-3.11,3.4-2.94,1.77.15,2.5,1.36,2.76,3,1.34-.59,1.06-2.77,2.87-2.76l.53,0a2.27,2.27,0,0,1,2.91,1.61c0,1.76,0,3.52,0,5.28l0,.15c-.16.25-.31.51-.46.77a.18.18,0,0,1-.17.18ZM216,276.06a3.23,3.23,0,0,0,0,3.47c.44.68.79,1.66,1.81,1.32a2.15,2.15,0,0,0,1.18-2,10.91,10.91,0,0,0,0-2c-.08-.84-.29-1.77-1.14-2.07C216.8,274.4,216.47,275.42,216,276.06Zm-3.85,1.76c-.07-1.21.19-3-1.34-3s-1.7,1.7-1.7,3-.05,3.1,1.65,3C212.26,280.79,212.12,279.06,212.15,277.82Z"/><path class="cls-11" d="M509.38,81H390.21v-.25H509.48Z"/><path class="cls-12" d="M60,275.56c.23-1.64,1.3-2.14,2.81-2.14,1.89,0,2.57,1.21,2.89,3,1.13-1.24,1.47-3.25,3.54-3.14a3.08,3.08,0,0,1,2,.77c1.62,1.54,1.53,6.13-.16,7.59s-3,.86-5.38-2c-.69,1.64-1.61,2.95-3.63,2.41L61.6,282h-.05l-.8-.5a.18.18,0,0,1-.16-.19c-.16-.25-.31-.51-.47-.77l0-.13C60.07,278.8,60.05,277.18,60,275.56Zm4.13,3.94a4,4,0,0,0-.11-4c-1.38-1.68-2.26-.87-2.75.69a7.5,7.5,0,0,0-.15,2.68,2,2,0,0,0,1.25,2C63.4,281.13,63.82,280.28,64.17,279.5ZM71,277.55c-.26-1,0-2.75-1.55-2.81-1.76-.08-1.73,1.76-1.75,3s-.07,3.14,1.6,3.14S70.85,279.05,71,277.55Z"/><path class="cls-13" d="M139.52,278.89c0-.74,0-1.47,0-2.21.77-.25.77-1,1-1.58a2.73,2.73,0,0,1,3-1.77,3,3,0,0,1,2.6,2.3c.36,1-.3,2.39,1,3.12v1.66c-.34-.15-.34-1.22-1-.47-3,3.52-4.07,3.4-6.18-.81C139.86,279,139.66,279,139.52,278.89Zm5.13-1.1c-.07-1.2.18-3-1.36-3s-1.67,1.73-1.69,3.05,0,2.95,1.45,3C144.82,280.88,144.58,279.08,144.65,277.79Z"/><path class="cls-12" d="M147.08,280.41v-1.66l.06-.21.38-.54c.25-.71-.31-1.26-.38-1.91a2.33,2.33,0,0,1,1.32-2.47,3.1,3.1,0,0,1,3.31.17,2.11,2.11,0,0,1,.92,2.39c-.15.68-.49,1.2,0,2a2.48,2.48,0,0,1-1.38,3.85C149.49,282.75,147.85,282.55,147.08,280.41Zm4.4-.69a1.57,1.57,0,0,0-1.57-1.58,1.29,1.29,0,0,0-1.39,1.4,1.32,1.32,0,0,0,1.37,1.44A1.48,1.48,0,0,0,151.48,279.72Zm-1.61-5.14c-.59.11-1.18.43-1.2,1.17s.58,1,1.14,1.06a1,1,0,0,0,1.26-1.1C151.07,275.07,150.59,274.74,149.87,274.58Z"/><path class="cls-12" d="M227,277.7a4.88,4.88,0,0,1-.76,3.24,2.77,2.77,0,0,1-4.09,1c-.68-.4-1.5-1.15-.77-2s1.1.12,1.5.61a1.06,1.06,0,0,0,1.53.28,1.16,1.16,0,0,0,.66-1.24c-.14-.55-.66-.27-1-.27-2,0-3.1-1-3-3.09a2.71,2.71,0,0,1,3-2.9c2,0,2.86,1.41,3,3.31C227.06,276.93,227,277.26,227,277.7Zm-1.55-1.7c-.23-.63-.65-1.42-1.59-1.3a1.56,1.56,0,0,0-1.34,1.76c0,1,.56,1.61,1.53,1.47S225.49,277.16,225.49,276Z"/><path class="cls-12" d="M518.91,277.42c.48-.22.75-.37,1-.48.55-.23,1.1-.44,1.11-1.17,0-.5-.34-.73-.72-.91a1.26,1.26,0,0,0-1.54.5c-.43.52-.65,1.68-1.52.8-.68-.69-.06-1.61.58-2.16a3.21,3.21,0,0,1,3.73-.33,2,2,0,0,1,1,2.77c-.46,1,.24,1.52.39,2.26a2.68,2.68,0,0,1-2,3.48c-1.69.5-3.13.2-4-1.52-.23-.46-.37-1,.08-1.38a.76.76,0,0,1,1.24.3c.41.9.89,1.66,2,1.28a1.38,1.38,0,0,0,1.07-1.25c0-1.26-1.22-1.13-2-1.56A4.55,4.55,0,0,1,518.91,277.42Z"/><path class="cls-12" d="M46.55,199.28a5.81,5.81,0,0,1-.52,2.91,2.65,2.65,0,0,1-3.29,1.55c-2.31-.61-2.44-2.59-2.44-4.4s.11-3.8,2.4-4.42a2.67,2.67,0,0,1,3.35,1.44A5.73,5.73,0,0,1,46.55,199.28Zm-4.58.07c.11,1.2-.2,3,1.6,3,1.44-.05,1.43-1.75,1.42-3s.06-2.95-1.38-3C41.87,196.22,42,198,42,199.35Z"/><path class="cls-12" d="M301,277.8a5.64,5.64,0,0,1-.52,2.92,2.65,2.65,0,0,1-3.31,1.51c-2.3-.63-2.41-2.61-2.41-4.42s.13-3.8,2.43-4.4a2.67,2.67,0,0,1,3.33,1.47A5.75,5.75,0,0,1,301,277.8Zm-4.62-.26a11.17,11.17,0,0,0,.29,2.28c.2.59.69,1.33,1.43,1.05,1.28-.48,1.36-1.72,1.36-2.89s.08-2.58-1.24-3.23c-.74-.36-1.23.39-1.48,1A7.6,7.6,0,0,0,296.42,277.54Z"/><path class="cls-12" d="M207.56,276.25v0c-.86,1.92-2.88,2.63-4.78,4.27h4.76c-.61,1.24-5.42,2.33-6.21,1.3s-.09-2,.64-2.64,1.9-1.32,2.82-2,1.07-1.31.25-2.09-1.51-.51-2,.37c-.38.64-.66,1.62-1.57.87-.72-.6-.06-1.44.34-2C203.37,272.14,206.21,273.1,207.56,276.25Z"/><path class="cls-12" d="M445,280.27c1.38.85,3.75-.38,3.66,1.07s-2.35.48-3.64.67c-.7.11-1.85.55-2.17-.49a2.47,2.47,0,0,1,1.1-2.6c.72-.56,1.55-1,2.3-1.47a1.61,1.61,0,0,0,.88-1.65,1.3,1.3,0,0,0-.94-1.06c-.79-.25-1.29.28-1.56.9s-.79,1.27-1.46.76-.18-1.23.16-1.8a2.91,2.91,0,0,1,3-1.34,2.64,2.64,0,0,1,2.53,2.06,2.67,2.67,0,0,1-1.22,3C446.83,278.94,445.75,279.23,445,280.27Z"/><path class="cls-12" d="M425.08,280.27c.31.17.44.26.58.32,1,.41,3.08-.75,3,.88,0,1.22-2.11.49-3.26.54-.86,0-2.25.66-2.57-.61s.58-2.19,1.6-2.88a23.6,23.6,0,0,0,2.28-1.5,1.22,1.22,0,0,0,0-1.95c-.72-.7-1.37-.42-1.89.25s-.74,1.93-1.7,1c-.7-.71.07-1.72.77-2.34a3.21,3.21,0,0,1,4.47.39c1.1,1.58.72,3-.82,4.07C426.78,279,425.75,279.21,425.08,280.27Z"/><path class="cls-12" d="M351.56,280.26c1.06.63,2.07.22,3,.38.44.07.82.28.82.76s-.46.64-.89.65c-1.08,0-2.16.07-3.23,0-.67-.05-1.64.46-1.92-.56a2.46,2.46,0,0,1,.64-2.07,8.94,8.94,0,0,1,2.62-1.86c.66-.42,1.21-.9,1-1.8a1.29,1.29,0,0,0-1-1c-.79-.21-1.26.33-1.53.95s-.78,1.21-1.48.69c-.53-.4-.17-1.1.1-1.6a2.9,2.9,0,0,1,3.15-1.5,2.63,2.63,0,0,1,2.49,2.1,2.69,2.69,0,0,1-1.26,3C353.3,279,352.22,279.25,351.56,280.26Z"/><path class="cls-13" d="M47.05,80.91c0-1.52.15-3.08,1.48-4a2.73,2.73,0,0,1,3.83.37c1.42,1.48,1.35,5.8-.12,7.23a2.74,2.74,0,0,1-3.84.3C47.15,83.82,47.09,82.34,47.05,80.91Zm4.61-.17c-.1-1.2.16-3-1.43-3s-1.63,1.78-1.63,3.1,0,3,1.5,3C51.86,83.82,51.57,82,51.66,80.74Z"/><path class="cls-13" d="M47.05,258.76c.08-1.58.21-3.24,1.79-4.1a2.73,2.73,0,0,1,3.61.66c1.29,1.51,1.23,5.61-.13,7.05a2.73,2.73,0,0,1-3.61.59C47.12,262,47.11,260.38,47.05,258.76Zm4.63.27c-.17-1.37.27-3.27-1.52-3.24-1.55,0-1.6,1.83-1.55,3.16a6.91,6.91,0,0,0,.34,1.92,1.28,1.28,0,0,0,1.23,1.05,1.4,1.4,0,0,0,1.23-1.07A8.91,8.91,0,0,0,51.68,259Z"/><path class="cls-13" d="M47.05,140.41c0-1.52.15-3.08,1.48-4a2.73,2.73,0,0,1,3.83.37c1.42,1.48,1.35,5.81-.12,7.23a2.74,2.74,0,0,1-3.84.3C47.15,143.32,47.09,141.84,47.05,140.41Zm4.65,0c-.22-1.22.26-3.15-1.54-3.11-1.55,0-1.6,1.83-1.55,3.16a6.91,6.91,0,0,0,.34,1.92,1.28,1.28,0,0,0,1.23,1,1.4,1.4,0,0,0,1.23-1.07A10.3,10.3,0,0,0,51.7,140.4Z"/><path class="cls-13" d="M287.87,278.1a6.57,6.57,0,0,1-.69,2.77,2.78,2.78,0,0,1-2.68,1.49c-2-.05-3.07-1.89-2.93-4.95.12-2.69,1.36-4.23,3.32-4.12S287.86,275,287.87,278.1Zm-1.71-.41c-.11-1.19.16-3-1.46-2.91s-1.61,1.81-1.6,3.14.06,2.94,1.54,2.91C286.39,280.79,286.06,279,286.16,277.69Z"/><path class="cls-13" d="M53.38,198.84a7.68,7.68,0,0,1-.67,3.47,2.73,2.73,0,0,1-2.65,1.54,2.57,2.57,0,0,1-2.52-1.71,7.48,7.48,0,0,1-.13-5.11,2.78,2.78,0,0,1,2.92-2.22,2.73,2.73,0,0,1,2.75,2.41C53.22,197.86,53.32,198.52,53.38,198.84Zm-1.73.37c-.14-1.1.27-3-1.54-2.92-1.43,0-1.53,1.71-1.51,3s-.07,3.1,1.63,3.08C51.76,202.31,51.61,200.58,51.65,199.21Z"/><path class="cls-13" d="M503.56,277.91c0-1.53.14-3.09,1.47-4.05a2.73,2.73,0,0,1,3.83.37c1.42,1.49,1.35,5.81-.12,7.24a2.74,2.74,0,0,1-3.84.29C503.65,280.81,503.59,279.34,503.56,277.91Zm4.59-.33c-.16-1,.27-2.86-1.57-2.79-1.41,0-1.51,1.74-1.48,3s-.05,3.1,1.66,3.05C508.26,280.79,508.12,279.05,508.15,277.58Z"/><path class="cls-13" d="M47.05,21.4c0-1.53.15-3.09,1.49-4a2.73,2.73,0,0,1,3.83.39c1.42,1.49,1.34,5.81-.14,7.23a2.8,2.8,0,0,1-3.85.29C47.48,24.64,47.06,23.26,47.05,21.4Zm4.61-.21c-.11-1.19.16-3-1.46-2.91s-1.61,1.81-1.6,3.14.06,2.94,1.54,2.91C51.89,24.29,51.56,22.47,51.66,21.19Z"/><path class="cls-12" d="M277.15,280.34c1.32.76,3.68-.43,3.6,1-.1,1.66-2.31.5-3.57.71-.69.11-1.84.58-2.17-.46a2.44,2.44,0,0,1,1.06-2.62c.85-.65,1.83-1.14,2.66-1.82a1.26,1.26,0,0,0,.06-2.12c-.78-.71-1.37-.24-1.88.38s-.63,1.76-1.51,1-.09-1.71.55-2.35a3.18,3.18,0,0,1,4.47.25c1.13,1.52.84,2.93-.67,4.1C278.93,279,277.8,279.22,277.15,280.34Z"/><path class="cls-12" d="M498.9,280.19c1.23.66,2.15.33,3,.44.52.06,1.06.14,1,.79s-.66.62-1.13.63a20.86,20.86,0,0,1-2.74,0c-.72-.09-1.83.59-2.1-.59a2.4,2.4,0,0,1,1-2.42c.72-.56,1.53-1,2.27-1.51s1.24-.9,1-1.8a1.34,1.34,0,0,0-1-1c-.78-.17-1.25.38-1.54,1s-.59,1.16-1.25.78-.36-1.18-.06-1.75a2.81,2.81,0,0,1,2.93-1.45,2.75,2.75,0,0,1,1.51,5C501,278.87,500.07,279.43,498.9,280.19Z"/><path class="cls-12" d="M55.11,280.32l.4.22c1.09.52,3.27-.8,3.24.95,0,1.15-2.26.44-3.5.53-.74.06-1.88.52-2.22-.41a2.52,2.52,0,0,1,1.18-2.8c.72-.55,1.56-.94,2.29-1.48s1.23-1.41.33-2.29-1.54-.24-2,.49c-.36.55-.63,1.42-1.39.88s-.25-1.39.16-2a3,3,0,0,1,3.09-1.14,2.57,2.57,0,0,1,2.3,2,2.75,2.75,0,0,1-1.16,3.05C57,278.94,55.87,279.23,55.11,280.32Z"/><path class="cls-12" d="M362.1,277.41a7.1,7.1,0,0,1-.5,3.35,2.68,2.68,0,0,1-2.35,1.59,2.54,2.54,0,0,1-2.76-1.68,7.15,7.15,0,0,1,.3-6.22,2.53,2.53,0,0,1,3.07-1C362.23,274.08,362,276.06,362.1,277.41Zm-1.58.3c0-1.23.2-2.92-1.41-2.94s-1.58,1.62-1.57,2.89a12.2,12.2,0,0,0,0,1.48c.11.88.5,1.73,1.44,1.75s1.36-.82,1.48-1.7A10.43,10.43,0,0,0,360.52,277.71Z"/><path class="cls-12" d="M435.56,277.64a6.48,6.48,0,0,1-.37,2.92,2.73,2.73,0,0,1-2.71,1.79,2.7,2.7,0,0,1-2.62-1.92,8.65,8.65,0,0,1-.26-4.16c.22-1.74,1.1-3,3-2.93s2.75,1.27,2.91,3.06C435.6,276.81,435.56,277.22,435.56,277.64Zm-1.46.39c-.12-1.42.23-3.3-1.56-3.24S431,276.66,431,278a5.72,5.72,0,0,0,.18,1.71c.2.63.61,1.27,1.38,1.22a1.54,1.54,0,0,0,1.32-1.3A8.79,8.79,0,0,0,434.1,278Z"/><path class="cls-2" d="M458,140.55l-.46-.51h51.88v.51Z"/><path class="cls-12" d="M76.91,275.29c-1.46-.75-3.79.41-3.72-1,.09-1.73,2.28-.47,3.52-.73.72-.16,1.85-.48,2.3.3.56,1-.53,1.62-1,2.35a14.2,14.2,0,0,0-2,4.52c-.15.65-.27,1.46-1.18,1.26-1.22-.29-.53-1.18-.36-1.81A16.41,16.41,0,0,1,76.91,275.29Z"/><path class="cls-12" d="M440.47,277.79c0,1.08,0,2.15,0,3.22,0,.55-.2,1-.83,1s-.84-.43-.86-1c0-1,0-2,0-3s.32-1.88-1.11-2.06c-.66-.08-.75-.76-.14-1,.94-.34,1.44-1.74,2.44-1.41s.42,1.59.54,2.43a11.09,11.09,0,0,1,0,1.73Z"/><path class="cls-12" d="M363,275.75c1.57-.88,2.41-2.44,3.47-2s.39,2.07.49,3.16c.1,1.24,0,2.48,0,3.72,0,.65.07,1.44-.94,1.39-.82,0-.76-.73-.78-1.29s0-1.33,0-2C365.18,277.41,365.83,275.72,363,275.75Z"/><path class="cls-7" d="M175.58,194.09c.33.91,1.48,1.31,1.51,2.41-1.69,1.85-3.11,4-5.51,5.07.65-2.75,2.84-4.75,3.6-7.45A1.75,1.75,0,0,1,175.58,194.09Z"/><path class="cls-12" d="M510.94,275.51c1.5-.32,2.05-2.46,3.22-1.73,1,.62.29,2.31.37,3.52a31.83,31.83,0,0,1,0,3.24c0,.6.22,1.48-.84,1.43-.86,0-.65-.81-.68-1.34a13.22,13.22,0,0,1,0-2C513.14,277.17,513.11,275.83,510.94,275.51Z"/><path class="cls-13" d="M368.88,275.58c1.63-.41,2.24-2.51,3.38-1.78.93.6.26,2.31.33,3.53s0,2.48,0,3.72c0,.54-.16,1-.84.93-.52-.05-.66-.43-.68-.86,0-.83,0-1.66,0-2.49C371,277.32,371.68,275.55,368.88,275.58Z"/><path class="cls-12" d="M34.3,197.12c1.6-.47,2.2-2.53,3.34-1.85s.29,2.3.39,3.51a15.67,15.67,0,0,1,0,2.74c-.07.71.47,2-.82,1.91s-.56-1.31-.69-2a8.22,8.22,0,0,1,0-1.49C36.49,198.59,36.9,197,34.3,197.12Z"/><path class="cls-12" d="M289,275.63c1.23-.63,2.05-2.37,3.05-1.89,1.16.54.35,2.24.46,3.43a21.9,21.9,0,0,1,0,3.24c0,.6.27,1.5-.72,1.56s-.76-.87-.8-1.46a14,14,0,0,1,0-2.24C291.14,276.88,290.92,275.8,289,275.63Z"/><path class="cls-12" d="M220,280.41c0-1.76,0-3.52,0-5.28A6.07,6.07,0,0,1,220,280.41Z"/><path class="cls-13" d="M60,275.56c0,1.62,0,3.24,0,4.86A5.6,5.6,0,0,1,60,275.56Z"/><path class="cls-13" d="M60.75,281.51l.8.5A.78.78,0,0,1,60.75,281.51Z"/><path class="cls-12" d="M219.51,281.33c.15-.26.3-.52.46-.77C219.81,280.81,219.66,281.07,219.51,281.33Z"/><path class="cls-13" d="M60.12,280.55c.16.26.31.52.47.77A.75.75,0,0,1,60.12,280.55Z"/><path class="cls-12" d="M218.54,282l.8-.5A.77.77,0,0,1,218.54,282Z"/><path class="cls-13" d="M61.6,282l.56.07Z"/><path class="cls-13" d="M147.52,278l-.38.54Z"/><path class="cls-12" d="M217.12,273.52l-.53,0Z"/><path class="cls-14" d="M373.06,209.05c0-.16,0-.31,0-.47,2.86-3.06,4.61-6.86,6.66-10.42,10.63-18.4,20.12-37.45,31.32-55.53.65-1,.79-2.4,2-3.06,5.12,12.53,10.33,25,16.22,37.22a66.82,66.82,0,0,0,11,16.22c10.22,11.15,22.65,19.43,35.37,27.35,9.94,6.2,20.42,11.49,30.16,18,.49.32,1,.55,1.3,1.12-2.56.66-4.54-1.05-6.65-1.85-18.6-7.1-37.06-14.61-56-20.72a98.42,98.42,0,0,0-25.31-4.44q-14.4-.74-28.79-1.52C384.53,210.65,378.8,209.71,373.06,209.05Z"/><path class="cls-14" d="M178,196.52a4.81,4.81,0,0,1,1.92-3.1c6.14-5.31,11.5-11.49,18.18-16.18,3.57-2.51,7.07-5.09,11.35-6.51,3.81-1.26,7.18-.56,10.53,1.12a42.68,42.68,0,0,1,10.29,7.72c5.12,5,10.16,10,15.24,15,0,.32,0,.65,0,1-2.1.36-2.73,2.39-3.8,3.72a178.14,178.14,0,0,1-15.87,17.19,39.59,39.59,0,0,1-7.4,5.43c-4.53,2.7-8.75,1.67-13-.67a56.56,56.56,0,0,1-11-8.09C188.81,207.81,183,202.54,178,196.52Z"/><path class="cls-9" d="M255,206.51c3.59,3.12,6.29,7,9.47,10.52,5.53,6.08,11,12.24,17.57,17.23a28.07,28.07,0,0,0,11.05,4.9,14.2,14.2,0,0,1-4.58,7c-2.06,1.94-4.6,2-7.15.31a33.06,33.06,0,0,1-9-9.2,191.86,191.86,0,0,1-15.11-25.8C256.48,209.83,255,208.52,255,206.51Z"/><path class="cls-7" d="M245.53,195.54c0-.33,0-.66,0-1l2-2A85.32,85.32,0,0,1,252.1,202a17.55,17.55,0,0,1-4.48-4.41A7.62,7.62,0,0,0,245.53,195.54Z"/><path class="cls-7" d="M171,202.54a1,1,0,0,1,.55-1A1,1,0,0,1,171,202.54Z"/><path class="cls-9" d="M168.51,206a.92.92,0,0,1,.58-.95C169.05,205.49,169,205.87,168.51,206Z"/><path class="cls-14" d="M508,240l.57.48Z"/><path class="cls-9" d="M169.09,205.08l.45-.53Z"/><path class="cls-7" d="M252.6,203l.43.6Z"/><path class="cls-1" d="M42,80.53a7.31,7.31,0,0,1,.15-1.41c.19-.73.59-1.44,1.46-1.41s1.05.73,1.22,1.37A6.4,6.4,0,0,1,45,80.77c0,1.31.06,3.08-1.62,3C41.86,83.78,42,82.06,42,80.53Z"/><path class="cls-1" d="M42,140a9.87,9.87,0,0,1,.2-1.54,1.56,1.56,0,0,1,1.31-1.3c.79,0,1.11.63,1.29,1.27a6.37,6.37,0,0,1,.24,1.68c0,1.32.08,3.12-1.51,3.15S42.07,141.47,42,140Z"/><path class="cls-1" d="M42,22.08c0-1,0-1.46,0-1.87.07-1,.42-1.94,1.45-2s1.29,1.09,1.48,2a5,5,0,0,1,0,1.23c0,1.24,0,2.88-1.53,2.9S42.06,22.64,42,22.08Z"/><path class="cls-15" d="M138,277.69a10.43,10.43,0,0,1,0,1.48c-.1.88-.52,1.72-1.46,1.72s-1.34-.85-1.46-1.73a12.2,12.2,0,0,1-.05-1.48c0-1.27,0-2.9,1.55-2.91S138,276.47,138,277.69Z"/><path class="cls-1" d="M216,276.06c.47-.64.8-1.66,1.82-1.3.85.3,1.06,1.23,1.14,2.07a10.91,10.91,0,0,1,0,2,2.15,2.15,0,0,1-1.18,2c-1,.34-1.37-.64-1.81-1.32Z"/><path class="cls-15" d="M212.15,277.82c0,1.24.11,3-1.39,3-1.7.05-1.65-1.75-1.65-3s0-3.09,1.7-3S212.08,276.61,212.15,277.82Z"/><path class="cls-1" d="M207.55,280.55h-4.77c1.9-1.64,3.92-2.35,4.78-4.27C207.56,277.7,207.55,279.13,207.55,280.55Z"/><path class="cls-12" d="M216,276.06l0,3.47A3.23,3.23,0,0,1,216,276.06Z"/><path class="cls-11" d="M71,277.55c-.16,1.5,0,3.33-1.7,3.33s-1.63-1.88-1.6-3.14,0-3.08,1.75-3C71,274.8,70.75,276.57,71,277.55Z"/><path class="cls-15" d="M64.17,279.5c-.35.78-.77,1.63-1.76,1.38a2,2,0,0,1-1.25-2,7.5,7.5,0,0,1,.15-2.68c.49-1.56,1.37-2.37,2.75-.69C64.1,276.86,64.13,278.18,64.17,279.5Z"/><path class="cls-13" d="M64.17,279.5c0-1.32-.07-2.64-.11-4A4,4,0,0,1,64.17,279.5Z"/><path class="cls-15" d="M144.65,277.8c-.07,1.28.17,3.08-1.6,3-1.45-.05-1.46-1.76-1.45-3s0-3.1,1.69-3.05S144.58,276.59,144.65,277.8Z"/><path class="cls-10" d="M151.48,279.72a1.48,1.48,0,0,1-1.59,1.26,1.32,1.32,0,0,1-1.37-1.44,1.29,1.29,0,0,1,1.39-1.4A1.57,1.57,0,0,1,151.48,279.72Z"/><path class="cls-11" d="M149.87,274.58c.72.16,1.2.49,1.2,1.13a1,1,0,0,1-1.26,1.1c-.56-.08-1.17-.4-1.14-1.06S149.28,274.69,149.87,274.58Z"/><path class="cls-10" d="M225.49,276c0,1.16-.54,1.81-1.4,1.93s-1.49-.51-1.53-1.47a1.56,1.56,0,0,1,1.34-1.76C224.84,274.58,225.26,275.37,225.49,276Z"/><path class="cls-1" d="M42,199.35c.07-1.35-.1-3.13,1.64-3,1.44.06,1.38,1.79,1.38,3s0,2.94-1.42,3C41.77,202.38,42.08,200.55,42,199.35Z"/><path class="cls-1" d="M296.42,277.54a7.6,7.6,0,0,1,.36-1.83c.25-.57.74-1.32,1.48-1,1.32.65,1.24,2,1.24,3.23s-.08,2.41-1.36,2.89c-.74.28-1.23-.46-1.43-1.05A11.17,11.17,0,0,1,296.42,277.54Z"/><path class="cls-15" d="M51.66,80.74c-.09,1.27.2,3.08-1.56,3.09-1.48,0-1.5-1.72-1.5-3s0-3.09,1.63-3.1S51.56,79.54,51.66,80.74Z"/><path class="cls-15" d="M51.68,259a8.91,8.91,0,0,1-.27,1.82,1.4,1.4,0,0,1-1.23,1.07A1.28,1.28,0,0,1,49,260.87a6.91,6.91,0,0,1-.34-1.92c0-1.33,0-3.12,1.55-3.16C52,255.76,51.51,257.66,51.68,259Z"/><path class="cls-15" d="M51.7,140.4a10.3,10.3,0,0,1-.29,1.95,1.4,1.4,0,0,1-1.23,1.07,1.28,1.28,0,0,1-1.23-1,6.91,6.91,0,0,1-.34-1.92c0-1.33,0-3.12,1.55-3.16C52,137.25,51.48,139.18,51.7,140.4Z"/><path class="cls-15" d="M286.16,277.69c-.1,1.28.23,3.1-1.52,3.14-1.48,0-1.53-1.67-1.54-2.91s0-3.08,1.6-3.14S286.05,276.5,286.16,277.69Z"/><path class="cls-15" d="M51.65,199.21c0,1.37.11,3.1-1.42,3.12-1.7,0-1.61-1.78-1.63-3.08s.08-2.94,1.51-3C51.92,196.26,51.51,198.11,51.65,199.21Z"/><path class="cls-15" d="M508.15,277.58c0,1.47.11,3.21-1.39,3.25-1.71.05-1.63-1.74-1.66-3.05s.07-2.94,1.48-3C508.42,274.72,508,276.59,508.15,277.58Z"/><path class="cls-15" d="M51.66,21.19c-.1,1.28.23,3.1-1.52,3.14-1.48,0-1.53-1.67-1.54-2.91s0-3.08,1.6-3.14S51.55,20,51.66,21.19Z"/><path class="cls-15" d="M360.52,277.71a10.43,10.43,0,0,1,0,1.48c-.12.88-.53,1.72-1.48,1.7s-1.33-.87-1.44-1.75a12.2,12.2,0,0,1,0-1.48c0-1.27,0-2.91,1.57-2.89S360.52,276.48,360.52,277.71Z"/><path class="cls-15" d="M434.1,278a8.79,8.79,0,0,1-.18,1.58,1.54,1.54,0,0,1-1.32,1.3c-.77,0-1.18-.59-1.38-1.22A5.72,5.72,0,0,1,431,278c0-1.32-.15-3.14,1.5-3.19S434,276.61,434.1,278Z"/></g></g></svg>