<svg xmlns="http://www.w3.org/2000/svg" viewBox="0 0 362.55 292.57"><defs><style>.cls-1{fill:#fefefe;}.cls-2{fill:#e9edf0;}.cls-3{fill:#eaeef1;}.cls-4{fill:#f65285;}.cls-5{fill:#6fcf88;}.cls-6{fill:#4c84fe;}.cls-7{fill:#ebeff2;}.cls-8{fill:#060606;}.cls-9{fill:#020202;}.cls-10{fill:#0b0b0b;}.cls-11{fill:#080808;}.cls-12{fill:#0c0c0c;}.cls-13{fill:#0b080a;}.cls-14{fill:#e4e4e4;}.cls-15{fill:#e6e8e4;}</style></defs><title>Recurso 8</title><g id="Capa_2" data-name="Capa 2"><g id="Capa_1-2" data-name="Capa 1"><path class="cls-1" d="M1.53.05h360V285.27c0,4.72-1,5.78-5.64,5.78H7.17c-4.55,0-5.64-1.08-5.64-5.53Zm301,140.71a137.18,137.18,0,0,0-1.45-20.63A116.09,116.09,0,0,0,290.5,85.56a114.72,114.72,0,0,0-17.41-26.28,123,123,0,0,0-18.34-17.53A115.94,115.94,0,0,0,216.5,22.42a139.81,139.81,0,0,0-33-5.37,117.34,117.34,0,0,0-17.37,1.06c-3.6.38-7.15,1.28-10.74,1.86-1.18.18-1.22.61-.95,1.65Q158.28,36.8,162,52c.32,1.3.59,2,2.27,1.62A83.66,83.66,0,0,1,186.44,52a81.64,81.64,0,0,1,11.07,1.36,90.67,90.67,0,0,1,22.78,7.74,81.82,81.82,0,0,1,26.85,21,88.54,88.54,0,0,1,15.55,26.78,73.42,73.42,0,0,1,4.74,21.51c.36,7.28.42,14.6-.88,21.87A92.41,92.41,0,0,1,258,178.1a81.86,81.86,0,0,1-13.5,18.71c-.77.83-.68,1.28.06,2q11.17,11.1,22.27,22.27c.91.92,1.57,1,2.44,0,1.77-2,3.7-3.8,5.42-5.85A120.15,120.15,0,0,0,297.38,173,116.64,116.64,0,0,0,302.53,140.76Zm-207-.83c0-1.25-.1-2.51,0-3.75.15-1.58-.58-2-2-2.05q-12.84-.7-25.67-1.56c-1.7-.11-2.29.31-2.33,2.12a113.23,113.23,0,0,0,3.34,30.91c8.69,33.56,28.27,58.68,58.8,75.13A114.1,114.1,0,0,0,177.6,254c1.75.08,2.49-.21,2.46-2.23-.12-8.5-.07-17,0-25.49,0-1.41-.05-2.39-1.93-2.26-4.11.29-8.14-.54-12.13-1.3a85.11,85.11,0,0,1-40.88-19.66C106,186.38,96.51,165.12,95.51,139.93Zm-2.88-8.87c3.13,0,3.1,0,3.41-3.62a34.85,34.85,0,0,1,.61-4.44C104,88.8,124,66.1,157.49,55.48c1.63-.51,1.95-1.16,1.55-2.74-2.07-8.13-4.1-16.27-6-24.45-.48-2.05-1.21-2.37-3.21-1.79a116.4,116.4,0,0,0-80.08,80.67A112.17,112.17,0,0,0,66.12,127c-.08.93-.89,2.44,1.21,2.56C75.55,130,83.76,130.53,92.63,131.06ZM183,238.89c0,4.33.08,8.66-.05,13,0,1.81.55,2.27,2.27,2.16a130.67,130.67,0,0,0,22.45-3,115.86,115.86,0,0,0,52.92-28.13c1.59-1.48,1.42-2.23,0-3.64q-9-8.72-17.66-17.66c-1.21-1.23-1.83-1.47-3.28-.16-15.55,14.08-33.79,21.76-54.81,22.61-1.4.06-1.87.44-1.84,1.85C183.08,230.23,183,234.56,183,238.89ZM181.45,55.57c-5.37-.45-11.35.44-17.28,1.72-.77.17-2.44-.1-2,1.52.36,1.32,1.46.48,2.29.34A80.38,80.38,0,0,1,174,57.62c11.59-.56,23,.2,34.08,4.32,11.45,4.26,21.77,10.23,30.42,18.88a82.21,82.21,0,0,1,17.8,26.8,71,71,0,0,1,5.58,22.6,89.6,89.6,0,0,1-.78,20.87,80.23,80.23,0,0,1-11.37,30.07,67.1,67.1,0,0,1-9.58,12.06c-.6.59-1.55,1.47-.7,2.33,1,1,1.6-.32,2.14-.87a75.86,75.86,0,0,0,14.54-21,81.27,81.27,0,0,0,7.48-27.19,83.77,83.77,0,0,0-.79-24,81.08,81.08,0,0,0-8.89-24.2c-8.75-15.52-20.87-27.37-37.15-34.82C205.81,58.4,194.43,55.08,181.45,55.57ZM228,121.06c0,2,.08,4,0,6-.09,1.72.11,2.57,2.29,2.6,2.4,0,2.23-1.16,2.21-2.75,0-2.58,0-5.16.09-7.74a2.9,2.9,0,0,1,3-3c1.91,0,2.13,1.49,2.16,3,.06,2.91.28,5.83.14,8.73-.09,1.89.95,1.72,2.14,1.69s2.25.32,2.18-1.64a35.1,35.1,0,0,1,.33-9.21c.37-1.65,1.44-2.77,3.16-2.55s1.91,1.64,1.91,3.06c0,2.91.11,5.83,0,8.74-.1,2,1.16,1.6,2.26,1.58s2.37.51,2.28-1.53c-.15-3.08,0-6.17,0-9.25,0-2.24-.3-4.45-2.6-5.51a6.17,6.17,0,0,0-6.79.87c-.48.37-.77,1-1.56.28-2.58-2.5-5.3-2.33-8.05-.26-.38.29-.76.74-1-.18-.59-2-2.23-.78-3.32-.84-1.3-.07-.65,1.26-.68,1.95C227.92,117.06,228,119.06,228,121.06ZM111.4,118c0,3.33,0,6.66,0,10,0,1.17.27,1.58,1.51,1.56,4.74-.07,9.49-.1,14.24,0,1.93,0,1.32-1.22,1.38-2.17s.3-2-1.38-1.91c-2.4.12-4.82,0-7.24,0-4,0-4,0-4-4,0-1.5.31-2,1.9-2,2.58.14,5.17-.06,7.74.07,1.55.09,1.82-.58,1.71-1.88-.1-1.1.35-2.34-1.63-2.22-2.57.17-5.18-.12-7.74.1-2.11.17-2-1-2-2.39s-.21-2.74,2.08-2.55c2.81.23,5.66,0,8.49.09,1.74.08,1.55-.92,1.57-2s0-1.86-1.5-1.82c-4.58.1-9.16.09-13.74,0-1.36,0-1.43.59-1.42,1.64C111.43,111.7,111.4,114.86,111.4,118Zm31.29.08c0,3.08.15,6.17-.05,9.23-.13,2,.67,2.24,2.4,2.29s2.13-.61,2.11-2.26c0-2.82-.37-5.66.25-8.46a3.12,3.12,0,0,1,3.55-2.76c1.9.19,2.25,1.69,2.25,3.31,0,2.83.11,5.67,0,8.49-.11,2,1.12,1.63,2.24,1.6s2.35.49,2.25-1.54c-.16-3,0-6-.05-9,0-5.59-3.81-8-8.78-5.44-1.52.79-1.71.31-1.71-1a29.49,29.49,0,0,1,0-4c.25-1.9-.92-1.72-2.11-1.68s-2.51-.44-2.38,1.72C142.83,111.78,142.69,115,142.69,118.11Zm27.66,4.46h4.24c.7,0,1.21,0,1.36-1,.56-3.58-2-7.71-5.36-8.59-4.32-1.1-8,.61-9.34,4.45a11.26,11.26,0,0,0,.21,8.29c1.27,3,3.78,4,6.81,4.09,2.82.06,5.28-.69,6.77-3.33.26-.46.83-.93.33-1.56s-3.87-.54-4.45.13c-1.74,2-4,1.85-5.24-.43-.66-1.24-.84-2.24,1.17-2.08C168,122.65,169.18,122.57,170.35,122.57Zm29.86,0c1.41,0,2.82,0,4.24,0,.61,0,1,0,1.18-.85.64-3.31-1.76-7.69-4.86-8.66-4.24-1.33-8.26.35-9.69,4.16a11.48,11.48,0,0,0,0,8.28c1.1,2.89,3.43,4.11,6.41,4.29s5.45-.46,7.15-3.07c.33-.51.91-1.07.51-1.75s-3.93-.58-4.58.18c-1.65,1.92-3.77,1.74-5.08-.44-.84-1.4-.85-2.32,1.21-2.16C197.88,122.64,199.05,122.57,200.21,122.57Zm19.39,5.31c.25,2.49,2.13,1.7,3.5,1.62,1.67-.08.87-1.54.89-2.35.09-4.15-.07-8.31.09-12.46.08-1.92-1-1.72-2.15-1.66s-2.54-.56-2.41,1.65a74.83,74.83,0,0,1-.1,8.47,3.15,3.15,0,0,1-3.4,3.23c-2,0-2.51-1.55-2.5-3.33,0-2.66-.2-5.33,0-8,.11-1.93-.74-2.12-2.32-2.1s-2.25.14-2.14,2c.18,3,0,6,0,9,0,4.74,3.44,7.14,7.87,5.5A17.25,17.25,0,0,0,219.6,127.88ZM136.93,107c-2.1,1.8-5.13,1.84-4.48,5.27.13.66-.45.82-1,.76-1-.1-1.08.56-1,1.25s-.43,2.17.4,2.2c2.42.09,1.49,1.75,1.55,2.84a45.38,45.38,0,0,1,0,5.47c-.28,5.22,2.93,5.39,6.71,4.79,1.28-.2,1-1.19.83-1.94s.41-1.87-.81-1.65c-2.48.46-2.31-1-2.27-2.61s.07-3.16,0-4.74c-.06-1.29,0-2.34,1.76-2,1.5.25,1.25-.87,1.26-1.75s.17-2-1.29-1.79c-1.83.28-1.79-.82-1.72-2.08C137,109.89,136.93,108.81,136.93,107Zm42.26,14.32c0,2.08.14,4.17,0,6.23s.83,2.08,2.36,2.07,2.22-.13,2.15-1.95c-.1-2.81-.36-5.66.3-8.45.36-1.52,1.24-3,2.85-2.42,3,1,2.57-1.62,2.75-2.7.27-1.6-1.53-1.25-2.54-1.41a3.08,3.08,0,0,0-2.49.91c-.41.37-.68,1.13-1.39,0s-2.31-.63-3.42-.41-.47,1.41-.5,2.16C179.14,117.3,179.19,119.3,179.19,121.3Zm6.29,38.6a11.4,11.4,0,0,1,2.86-3c1.6-1.45,3.38-2.74,4.48-4.66,1.61-2.81.65-5.95-2.11-7.13-3.07-1.31-6.84,0-7.74,2.81-.21.65-1.05,1.59.43,2,1,.24,1.45.1,1.7-1.06a2.89,2.89,0,0,1,2.93-2.25,3,3,0,0,1,2.88,1.64c.78,1.34.2,2.62-.67,3.68a25.33,25.33,0,0,1-4,3.78,10.87,10.87,0,0,0-3.8,4.53c-.4,1.06-.57,1.91,1.12,1.86,2.91-.09,5.82,0,8.74,0,.74,0,1.24-.05,1.28-1,0-1.12-.55-1.17-1.39-1.15C190.11,159.92,188,159.9,185.48,159.9Zm-7.38-9.59c0-1.24,0-2.49,0-3.73,0-.59.39-1.44-.51-1.7a1.64,1.64,0,0,0-1.93.74c-2.21,3.2-4.53,6.33-6.66,9.58-1.19,1.81-.62,2.71,1.46,2.75a18.52,18.52,0,0,0,3,0c2-.29,2.9.39,2.57,2.51-.12.72-.37,1.68,1.06,1.66s1-1,1-1.72c.1-1.12-.51-2.65,1.62-2.47.67.06.7-.54.72-1.05s-.24-1-.85-.93c-1.52.16-1.53-.78-1.49-1.87C178.13,152.8,178.1,151.56,178.1,150.31Z"/><path class="cls-2" d="M1.53.05V285.52c0,4.45,1.09,5.53,5.64,5.53H355.89c4.61,0,5.64-1.06,5.64-5.78V.05c.31.2,1.06-.49,1,.5,0,.58,0,1.16,0,1.75V292.05l-.5.5H.53l-.5-.5V.55l.5-.5Z"/><path class="cls-1" d="M.53.05,0,.55C-.07.12.1,0,.53.05Z"/><path class="cls-1" d="M0,292.05l.5.5C.1,292.64-.07,292.48,0,292.05Z"/><path class="cls-1" d="M362,292.55l.5-.5C362.62,292.48,362.46,292.64,362,292.55Z"/><path class="cls-3" d="M302.53,140.76a116.64,116.64,0,0,1-5.15,32.2,120.15,120.15,0,0,1-22.72,42.29c-1.72,2.05-3.65,3.87-5.42,5.85-.87,1-1.53.92-2.44,0q-11.1-11.17-22.27-22.27c-.74-.74-.83-1.19-.06-2A81.86,81.86,0,0,0,258,178.1a92.41,92.41,0,0,0,8.58-25.87c1.3-7.27,1.24-14.59.88-21.87a73.42,73.42,0,0,0-4.74-21.51,88.54,88.54,0,0,0-15.55-26.78,81.82,81.82,0,0,0-26.85-21,90.67,90.67,0,0,0-22.78-7.74A81.64,81.64,0,0,0,186.44,52a83.66,83.66,0,0,0-22.17,1.64c-1.68.37-2-.32-2.27-1.62q-3.72-15.21-7.54-30.39c-.27-1-.23-1.47.95-1.65,3.59-.58,7.14-1.48,10.74-1.86a117.34,117.34,0,0,1,17.37-1.06,139.81,139.81,0,0,1,33,5.37,115.94,115.94,0,0,1,38.25,19.33,123,123,0,0,1,18.34,17.53A114.72,114.72,0,0,1,290.5,85.56a116.09,116.09,0,0,1,10.58,34.57A137.18,137.18,0,0,1,302.53,140.76Z"/><path class="cls-4" d="M95.51,139.93c1,25.19,10.48,46.45,29.58,63.16A85.11,85.11,0,0,0,166,222.75c4,.76,8,1.59,12.13,1.3,1.88-.13,1.94.85,1.93,2.26,0,8.5-.09,17,0,25.49,0,2-.71,2.31-2.46,2.23a114.1,114.1,0,0,1-49.94-13.3c-30.53-16.45-50.11-41.57-58.8-75.13a113.23,113.23,0,0,1-3.34-30.91c0-1.81.63-2.23,2.33-2.12q12.83.87,25.67,1.56c1.43.07,2.16.47,2,2.05C95.41,137.42,95.51,138.68,95.51,139.93Z"/><path class="cls-5" d="M92.63,131.06c-8.87-.53-17.08-1.05-25.3-1.5-2.1-.12-1.29-1.63-1.21-2.56a112.17,112.17,0,0,1,3.63-19.83A116.4,116.4,0,0,1,149.83,26.5c2-.58,2.73-.26,3.21,1.79,1.9,8.18,3.93,16.32,6,24.45.4,1.58.08,2.23-1.55,2.74C124,66.1,104,88.8,96.65,123a34.85,34.85,0,0,0-.61,4.44C95.73,131.09,95.76,131.1,92.63,131.06Z"/><path class="cls-6" d="M183,238.89c0-4.33.05-8.66,0-13,0-1.41.44-1.79,1.84-1.85,21-.85,39.26-8.53,54.81-22.61,1.45-1.31,2.07-1.07,3.28.16q8.73,8.93,17.66,17.66c1.45,1.41,1.62,2.16,0,3.64A115.86,115.86,0,0,1,207.7,251a130.67,130.67,0,0,1-22.45,3c-1.72.11-2.32-.35-2.27-2.16C183.11,247.55,183,243.22,183,238.89Z"/><path class="cls-7" d="M181.45,55.57c13-.49,24.36,2.83,35.34,7.86,16.28,7.45,28.4,19.3,37.15,34.82a81.08,81.08,0,0,1,8.89,24.2,83.77,83.77,0,0,1,.79,24,81.27,81.27,0,0,1-7.48,27.19,75.86,75.86,0,0,1-14.54,21c-.54.55-1.11,1.92-2.14.87-.85-.86.1-1.74.7-2.33a67.1,67.1,0,0,0,9.58-12.06,80.23,80.23,0,0,0,11.37-30.07,89.6,89.6,0,0,0,.78-20.87,71,71,0,0,0-5.58-22.6,82.21,82.21,0,0,0-17.8-26.8c-8.65-8.65-19-14.62-30.42-18.88C197,57.82,185.6,57.06,174,57.62a80.38,80.38,0,0,0-9.55,1.53c-.83.14-1.93,1-2.29-.34-.44-1.62,1.23-1.35,2-1.52C170.1,56,176.08,55.12,181.45,55.57Z"/><path class="cls-8" d="M228,121.06c0-2-.06-4,0-6,0-.69-.62-2,.68-1.95,1.09.06,2.73-1.18,3.32.84.26.92.64.47,1,.18,2.75-2.07,5.47-2.24,8.05.26.79.77,1.08.09,1.56-.28a6.17,6.17,0,0,1,6.79-.87c2.3,1.06,2.59,3.27,2.6,5.51,0,3.08-.11,6.17,0,9.25.09,2-1.23,1.51-2.28,1.53s-2.36.41-2.26-1.58c.14-2.91,0-5.83,0-8.74,0-1.42-.27-2.86-1.91-3.06s-2.79.9-3.16,2.55a35.1,35.1,0,0,0-.33,9.21c.07,2-1,1.61-2.18,1.64s-2.23.2-2.14-1.69c.14-2.9-.08-5.82-.14-8.73,0-1.51-.25-3-2.16-3a2.9,2.9,0,0,0-3,3c-.13,2.58-.13,5.16-.09,7.74,0,1.59.19,2.78-2.21,2.75-2.18,0-2.38-.88-2.29-2.6C228.06,125.07,228,123.06,228,121.06Z"/><path class="cls-9" d="M111.4,118c0-3.17,0-6.33,0-9.5,0-1,.06-1.66,1.42-1.64,4.58.09,9.16.1,13.74,0,1.54,0,1.52.73,1.5,1.82s.17,2.12-1.57,2c-2.83-.13-5.68.14-8.49-.09-2.29-.19-2.06,1.08-2.08,2.55s-.15,2.56,2,2.39c2.56-.22,5.17.07,7.74-.1,2-.12,1.53,1.12,1.63,2.22.11,1.3-.16,2-1.71,1.88-2.57-.13-5.16.07-7.74-.07-1.59-.09-1.92.45-1.9,2,.06,4,0,4,4,4,2.42,0,4.84.09,7.24,0,1.68-.09,1.44.94,1.38,1.91s.55,2.21-1.38,2.17c-4.75-.1-9.5-.07-14.24,0-1.24,0-1.54-.39-1.51-1.56C111.45,124.69,111.4,121.36,111.4,118Z"/><path class="cls-10" d="M142.69,118.11c0-3.16.14-6.33,0-9.48-.13-2.16,1.21-1.68,2.38-1.72s2.36-.22,2.11,1.68a29.49,29.49,0,0,0,0,4c0,1.31.19,1.79,1.71,1,5-2.57,8.77-.15,8.78,5.44,0,3-.11,6,.05,9,.1,2-1.19,1.52-2.25,1.54s-2.35.37-2.24-1.6c.15-2.82,0-5.66,0-8.49,0-1.62-.35-3.12-2.25-3.31a3.12,3.12,0,0,0-3.55,2.76c-.62,2.8-.28,5.64-.25,8.46,0,1.65-.25,2.31-2.11,2.26s-2.53-.27-2.4-2.29C142.84,124.28,142.69,121.19,142.69,118.11Z"/><path class="cls-8" d="M170.35,122.57c-1.17,0-2.34.08-3.5,0-2-.16-1.83.84-1.17,2.08,1.22,2.28,3.5,2.45,5.24.43.58-.67,3.94-.78,4.45-.13s-.07,1.1-.33,1.56c-1.49,2.64-3.95,3.39-6.77,3.33-3-.06-5.54-1.09-6.81-4.09a11.26,11.26,0,0,1-.21-8.29c1.34-3.84,5-5.55,9.34-4.45,3.4.88,5.92,5,5.36,8.59-.15,1-.66,1-1.36,1Zm-2.23-2.67c3.32,0,3.32,0,3.38-.86.09-1.33-1.72-3.08-3.17-3a2.93,2.93,0,0,0-3,2.82C165.41,120.94,167.36,119.35,168.12,119.9Z"/><path class="cls-8" d="M200.21,122.57c-1.16,0-2.33.07-3.49,0-2.06-.16-2.05.76-1.21,2.16,1.31,2.18,3.43,2.36,5.08.44.65-.76,4.14-.94,4.58-.18s-.18,1.24-.51,1.75c-1.7,2.61-4.26,3.23-7.15,3.07s-5.31-1.4-6.41-4.29a11.48,11.48,0,0,1,0-8.28c1.43-3.81,5.45-5.49,9.69-4.16,3.1,1,5.5,5.35,4.86,8.66-.16.83-.57.85-1.18.85C203,122.56,201.62,122.57,200.21,122.57Zm-2.05-2.42c.71-1.19,2.88,1.08,3-1.31a2.76,2.76,0,0,0-3-2.74,2.82,2.82,0,0,0-3,2.71C195.11,120.88,197.06,119.38,198.16,120.15Z"/><path class="cls-11" d="M219.6,127.88a17.25,17.25,0,0,1-2.66,1.54c-4.43,1.64-7.83-.76-7.87-5.5,0-3,.13-6,0-9-.11-1.83.67-2,2.14-2s2.43.17,2.32,2.1c-.16,2.64.05,5.31,0,8,0,1.78.52,3.28,2.5,3.33a3.15,3.15,0,0,0,3.4-3.23,74.83,74.83,0,0,0,.1-8.47c-.13-2.21,1.29-1.6,2.41-1.65s2.23-.26,2.15,1.66c-.16,4.15,0,8.31-.09,12.46,0,.81.78,2.27-.89,2.35C221.73,129.58,219.85,130.37,219.6,127.88Z"/><path class="cls-11" d="M136.93,107c0,1.83,0,2.91,0,4-.07,1.26-.11,2.36,1.72,2.08,1.46-.22,1.29.88,1.29,1.79s.24,2-1.26,1.75c-1.79-.3-1.82.75-1.76,2,.08,1.58.05,3.16,0,4.74s-.21,3.07,2.27,2.61c1.22-.22.71,1,.81,1.65s.45,1.74-.83,1.94c-3.78.6-7,.43-6.71-4.79a45.38,45.38,0,0,0,0-5.47c-.06-1.09.87-2.75-1.55-2.84-.83,0-.29-1.43-.4-2.2s0-1.35,1-1.25c.53.06,1.11-.1,1-.76C131.8,108.82,134.83,108.78,136.93,107Z"/><path class="cls-12" d="M179.19,121.3c0-2-.05-4,0-6,0-.75-.57-2,.5-2.16s2.7-.76,3.42.41,1,.39,1.39,0a3.08,3.08,0,0,1,2.49-.91c1,.16,2.81-.19,2.54,1.41-.18,1.08.29,3.75-2.75,2.7-1.61-.56-2.49.9-2.85,2.42-.66,2.79-.4,5.64-.3,8.45.07,1.82-.7,1.94-2.15,1.95s-2.53-.08-2.36-2.07S179.19,123.38,179.19,121.3Z"/><path class="cls-13" d="M185.48,159.9c2.52,0,4.63,0,6.75,0,.84,0,1.43,0,1.39,1.15,0,1-.54,1-1.28,1-2.92,0-5.83-.07-8.74,0-1.69,0-1.52-.8-1.12-1.86a10.87,10.87,0,0,1,3.8-4.53,25.33,25.33,0,0,0,4-3.78c.87-1.06,1.45-2.34.67-3.68a3,3,0,0,0-2.88-1.64,2.89,2.89,0,0,0-2.93,2.25c-.25,1.16-.74,1.3-1.7,1.06-1.48-.37-.64-1.31-.43-2,.9-2.78,4.67-4.12,7.74-2.81,2.76,1.18,3.72,4.32,2.11,7.13-1.1,1.92-2.88,3.21-4.48,4.66A11.4,11.4,0,0,0,185.48,159.9Z"/><path class="cls-13" d="M178.1,150.31c0,1.25,0,2.49,0,3.74,0,1.09,0,2,1.49,1.87.61-.06.88.31.85.93s-.05,1.11-.72,1.05c-2.13-.18-1.52,1.35-1.62,2.47-.07.71.42,1.7-1,1.72s-1.18-.94-1.06-1.66c.33-2.12-.54-2.8-2.57-2.51a18.52,18.52,0,0,1-3,0c-2.08,0-2.65-.94-1.46-2.75,2.13-3.25,4.45-6.38,6.66-9.58a1.64,1.64,0,0,1,1.93-.74c.9.26.48,1.11.51,1.7C178.14,147.82,178.1,149.07,178.1,150.31Zm-7.34,5.63c1.65,0,2.73,0,3.8,0,.86,0,1.46-.16,1.44-1.21,0-1.84,0-3.68,0-5.52l-.51-.07Z"/><path class="cls-14" d="M168.12,119.9c-.76-.55-2.71,1-2.77-1a2.93,2.93,0,0,1,3-2.82c1.45-.11,3.26,1.64,3.17,3C171.44,119.9,171.44,119.9,168.12,119.9Z"/><path class="cls-15" d="M198.16,120.15c-1.1-.77-3,.73-3-1.34a2.82,2.82,0,0,1,3-2.71,2.76,2.76,0,0,1,3,2.74C201,121.23,198.87,119,198.16,120.15Z"/><path class="cls-15" d="M170.76,155.94l4.72-6.8.51.07c0,1.84,0,3.68,0,5.52,0,1.05-.58,1.23-1.44,1.21C173.49,155.92,172.41,155.94,170.76,155.94Z"/></g></g></svg>