<svg xmlns="http://www.w3.org/2000/svg" viewBox="0 0 557.59 314.67"><defs><style>.cls-1{fill:#fefefe;}.cls-2{fill:#e9edf0;}.cls-3{fill:#4c84fe;}.cls-4{fill:#6fcf88;}.cls-5{fill:#f65285;}.cls-6{fill:#f5f5f5;}.cls-7{fill:#f6f6f6;}.cls-8{fill:#8b8a8a;}.cls-9{fill:#8c8c8d;}.cls-10{fill:#8b8a8d;}.cls-11{fill:#8d8b8b;}.cls-12{fill:#8b8a8b;}.cls-13{fill:#8b8a8c;}.cls-14{fill:#8c8b8b;}.cls-15{fill:#8c8b8d;}.cls-16{fill:#8b898b;}.cls-17{fill:#8d8c8e;}.cls-18{fill:#8a8f98;}.cls-19{fill:#8b8990;}.cls-20{fill:#f1f1f1;}.cls-21{fill:#948d89;}.cls-22{fill:#ededed;}.cls-23{fill:#eef2f3;}.cls-24{fill:#4d84fe;}.cls-25{fill:#f65385;}.cls-26{fill:#70d088;}.cls-27{fill:#f3f6fe;}.cls-28{fill:#fef3f6;}.cls-29{fill:#f9fcfa;}.cls-30{fill:#fefcfc;}.cls-31{fill:#f6f8f7;}.cls-32{fill:#fcfcf8;}.cls-33{fill:#f8fbfb;}.cls-34{fill:#f7f7f6;}.cls-35{fill:#fbfcfb;}</style></defs><title>Recurso 5</title><g id="Capa_2" data-name="Capa 2"><g id="Capa_1-2" data-name="Capa 1"><path class="cls-1" d="M.55,314.63c-.16-.11-.52.25-.51-.25,0-.67,0-1.34,0-2q0-155,0-310C0,.5.42.08,2.3.08q276.5.08,553,.08c.73,0,1.69-.58,2.25.47-.85,1.21-.49,2.58-.49,3.89q0,151.1,0,302.2c0,6.9-.51,7.41-7.36,7.41H8.26c-6.68,0-7.21-.54-7.21-7.3V4.62q0,152.2,0,304.41C1,310.89,2,312.88.55,314.63Z"/><path class="cls-2" d="M.55,314.63V1c1.26,0,.94.8,1,1.29.06.74,0,1.5,0,2.25V307.71c0,5,1,5.92,6,5.92h543c5.17,0,6.06-.9,6.06-6.1q0-151.86,0-303.72c0-1.05-.9-2.6,1-3.18q0,155.87,0,311.75c0,1.87-.42,2.29-2.29,2.29Q277.92,314.6.55,314.63Z"/><path class="cls-3" d="M86.47,255.62V197.13c-.13-.11-.18-.22-.13-.34s.08-.17.13-.17q0-22,.08-44c0-5,0-10-.08-15-.13-.12-.18-.23-.13-.35s.09-.17.13-.17v-59c-.13-.12-.18-.23-.13-.35s.09-.17.13-.17V19.13c1.44-1.09,5.38-1.07,7,0a5.33,5.33,0,0,1,.35,2.2c0,18.75.11,37.49,0,56.23.16,18.25,0,36.5.07,54.74,0,1.75.07,3.5-.07,5.25.1,19.42.14,38.84,0,58.27,0,.49,0,1,0,1.48.16,18.75.06,37.5.06,56.25a5.24,5.24,0,0,1-.32,2C91.91,256.69,88,256.73,86.47,255.62Z"/><path class="cls-4" d="M483.13,78.62q0,30-.07,59.92,0,57.54,0,115.09c0,.66.05,1.33.08,2-1.43,1.08-5.37,1.07-7,0a5.25,5.25,0,0,1-.36-2.21c0-18.66-.11-37.32.06-56v-1q-.17-29.26,0-58.52c0-.33,0-.66,0-1-.15-18.91-.06-37.82-.05-56.73a5.35,5.35,0,0,1,.23-1.73,3.19,3.19,0,0,1,.49-.86c0-10.88,0-21.76.12-32.64,0-.88-.61-2.3.77-2.54a9.35,9.35,0,0,1,5.37.18c.66.29.3,1.38.3,2.1q.07,16.45.1,32.9A.93.93,0,0,1,483.13,78.62Z"/><path class="cls-5" d="M486,137.63c0-7.13.14-14.27.05-21.4,0-2,.37-2.75,2.54-2.66,4,.18,4,0,4,4.14q0,9.71.08,19.41c.13.11.18.23.13.34s-.09.18-.13.18v59c.14.11.18.23.13.34s-.09.18-.13.18v58.48c-1.44,1.09-5.38,1.07-7,0a9.62,9.62,0,0,1-.36-3.7q0-25.32,0-50.66c0-1.39-.23-2.85.71-4.09v-1a4.91,4.91,0,0,1-.72-3.34q0-25.9,0-51.82A4.91,4.91,0,0,1,486,137.63Z"/><path class="cls-6" d="M486,255.62a9.46,9.46,0,0,0,6.65,0H511.2v.71H67.9l0-.71H86.47a9.49,9.49,0,0,0,6.66,0,2.82,2.82,0,0,1,2.36-.56,5.72,5.72,0,0,1,.83.12,14.36,14.36,0,0,0,6.55-.22c1.76-.73,1.37-2.32,1.37-3.66,0-10.32,0-20.64,0-31q0-9.61,0-19.22c0-1.33.1-2.73-1.36-3.5a1.34,1.34,0,0,1-.5-.67c.21-1,1.74-.88,1.76-2.05.21-10.09,0-20.17.13-30.25,0-1.25-.59-2.93,1.32-3.56,1.08,1.39.73,3,.73,4.57q0,42.27,0,84.54c0,5.48.07,5.54,5.69,4.83a129.39,129.39,0,0,1,13.21-.2c7.9,0,15.8-.24,23.7.15a10.33,10.33,0,0,1,1.33.33c2.17.05,4.34.31,6.48-.34,1.72-.56,1.47-2,1.48-3.32,0-6.22,0-12.45,0-18.67q0-15.81,0-31.62c0-1.39.21-2.89-1.35-3.73a1.37,1.37,0,0,1-.5-.68c.19-1,1.72-.86,1.76-2,.23-6.17.07-12.33.08-18.49,0-11.48,0-23,0-34.46,0-1.59.1-3.22-1.61-4.15a.69.69,0,0,1-.07-.87c1.59-.94,1.7-2.47,1.69-4.1,0-9.27,0-18.54.05-27.82,0-1.17-.73-2.92,1.36-3.37,1,1.42.67,3,.67,4.6q0,71,0,142v2c0,5.33.18,5.48,5.56,4.73,2-.35,1.81-1.93,1.81-3.32,0-7.58,0-15.16,0-22.75,0-5.75,0-11.5,0-17.25,0-1.15-.3-2.57,1.28-3.14,1.06,1.2.77,2.68.77,4.06q0,18.7,0,37.43c0,5.68.09,5.75,5.77,5,4.73-.43,9.46-.2,14.19-.18,7.55,0,15.11-.25,22.66.15a8.59,8.59,0,0,1,1.33.32c2.17.05,4.34.31,6.48-.34,1.72-.56,1.47-2,1.48-3.32,0-6.23,0-12.45,0-18.67q0-15.81,0-31.62c0-1.39.2-2.89-1.35-3.74a1.34,1.34,0,0,1-.5-.67c.21-1,1.74-.88,1.76-2,.21-10.09,0-20.17.12-30.25,0-1.26-.56-2.93,1.32-3.58,1,1.22.74,2.68.74,4.07q0,42.27,0,84.54v.75c0,5.13,0,5.13,5.19,4.7a7.77,7.77,0,0,1,2.72,0,11.1,11.1,0,0,0,1.28.24,22.88,22.88,0,0,0,6.45-.34c9.33-.4,18.66-.1,28-.17A66.81,66.81,0,0,1,276,255a8.87,8.87,0,0,1,1.33.32c2.17.05,4.34.31,6.47-.34,1.72-.58,1.47-2.06,1.47-3.35,0-6.66,0-13.32,0-20q0-15.12,0-30.22c0-1.62,0-3.2-1.67-4.13a.71.71,0,0,1,0-.88c1.76-1,1.62-2.73,1.62-4.4q0-25,0-50.08c0-1.47-.31-3,.74-4.32,1.34.12,1.15,1.24,1.28,2.07a22.58,22.58,0,0,1,.08,3.49V250.12q0,1.5,0,3c0,1.39.63,2.14,2.12,2.15s2.15-.63,2.19-2.07q0-1.5,0-3,0-54.09,0-108.19c0-1.53-.68-3.39,1.22-4.47,1.2,1.24.84,2.81.84,4.27q0,25.07,0,50.14c0,1.65-.2,3.39,1.57,4.42a.7.7,0,0,1,.13.86,3.85,3.85,0,0,0-1.73,3.6c0,17,0,34,0,51.06,0,1.23-.12,2.58,1.46,3.09,2.12.66,4.29.38,6.45.35a12.25,12.25,0,0,1,1.33-.32c10-.4,20-.09,30-.17a44,44,0,0,1,6.49.16,22.75,22.75,0,0,0,6.38.36,6.36,6.36,0,0,0,1.22-.21,6.51,6.51,0,0,1,2.45,0,24,24,0,0,0,6,.22c.41,0,.81-.18,1.22-.25a7.44,7.44,0,0,1,2.62,0,1.06,1.06,0,0,1,.25,0c4.95.49,5.07.38,5.07-4.57V209c0-3.79-.07-4.23-3.74-4.1a2.5,2.5,0,0,1-2-.74c1.73-2.28,4.09-1.28,6.14-1s1.71,2.22,1.72,3.68c.05,11.31,0,22.62,0,33.93,0,3.41,0,6.83,0,10.24,0,3.7.11,3.81,3.74,3.82q14.22,0,28.45,0a25.2,25.2,0,0,1,4,.17,23.47,23.47,0,0,0,6.48.37,9.78,9.78,0,0,0,1.29-.25,8.07,8.07,0,0,1,2.73,0c5.2.43,5.2.43,5.2-4.73q0-72,0-144c0-1.55-.31-3.17.61-4.62,1.43-.43,1.19.81,1.34,1.46a18.43,18.43,0,0,1,.14,3.72q0,13,0,26.1c0,1.53.08,3,1.64,3.88a.68.68,0,0,1,0,.87,3.56,3.56,0,0,0-1.66,3.37c0,17.93-.1,35.86.09,53.78.05,1.13,1.5,1,1.76,2a1.27,1.27,0,0,1-.48.7c-1.23.64-1.36,1.79-1.37,3q0,25.77,0,51.55c0,1.16,0,2.39,1.47,2.82,2.12.66,4.29.38,6.44.35a13.08,13.08,0,0,1,1.34-.33c12.32-.25,24.63-.35,36.95,0,5.62.7,5.68.65,5.68-4.89q0-113.11,0-226.22c0-1.65-.25-3.34.43-4.94.36-.39.74-.81.88.15,0,18.65,0,37.3,0,56,0,1.91.43,2.87,2.47,2.52,0,.17,0,.34,0,.51a4.44,4.44,0,0,0-1.65,3.94q0,25.56,0,51.11a4.44,4.44,0,0,0,1.65,3.94v.51a4.44,4.44,0,0,0-1.65,3.94q0,25.56,0,51.11a4.43,4.43,0,0,0,1.65,3.94v.51a4.43,4.43,0,0,0-1.66,3.94q0,25.31,0,50.62a4.4,4.4,0,0,0,1.66,3.93,9.49,9.49,0,0,0,6.66,0h.41A1.75,1.75,0,0,1,486,255.62Z"/><path class="cls-7" d="M474.05,19.14l-.54-.5c-2.11,1.39-4.62.34-6.83,1.11a25.93,25.93,0,0,1-4.49.2q-182,0-364,0c-1.71,0-3.53.45-5.05-.8a9.6,9.6,0,0,0-6.66,0H67.9v-.7H511.19v.71Z"/><path class="cls-1" d="M486,255.62h-2.42c0-18.64,0-37.29,0-55.94,0-1.87.36-2.91,2.44-2.55,0,11.36.09,22.73.09,34.1C486.05,239.36,486,247.49,486,255.62Z"/><path class="cls-1" d="M486,137.63c0,9.87.09,19.75.09,29.62,0,9.63-.05,19.25-.08,28.88-1.77.25-2.46-.33-2.46-2.29q.12-27,0-53.91C483.5,138,484.15,137.36,486,137.63Z"/><path class="cls-8" d="M108,276.25a2.89,2.89,0,0,1-1.54-4.13c.64-1.48,1.86-1.79,3.3-1.57,2.06.32,2.29,1.87,2.32,3.54a6.44,6.44,0,0,1-.67,3.86,2.77,2.77,0,0,1-4.09,1c-1-.61-1.61-1.59.12-2.25a2.35,2.35,0,0,0,1.51.42C108.88,276.51,108.18,276.63,108,276.25Z"/><path class="cls-9" d="M43.73,198.88c1.29.58,2.36.2,3.39.35.44.06.83.25.83.74s-.43.64-.86.65a17.76,17.76,0,0,1-2.73,0c-.79-.12-2,.64-2.29-.69a2.54,2.54,0,0,1,1.22-2.56c.72-.54,1.57-.93,2.29-1.48s1.33-1.32.35-2.24-1.5-.4-2.07.35c-.4.54-.57,1.71-1.52.9-.7-.59,0-1.42.37-2,.78-1.12,2-1,3.18-.86a2.22,2.22,0,0,1,2,1.87,2.47,2.47,0,0,1-1,2.83C45.92,197.44,44.9,198.09,43.73,198.88Z"/><path class="cls-9" d="M341.69,277.72c1.3,0,2.25,0,3.21,0,.52,0,1.07.12,1,.77s-.66.61-1.13.62a25,25,0,0,1-2.74,0c-.67-.06-1.62.43-2-.5a2.21,2.21,0,0,1,.85-2.44c.81-.69,1.79-1.18,2.65-1.82s1.29-1.36.29-2.24-1.52-.34-2.06.41c-.4.55-.6,1.68-1.52.83-.66-.6,0-1.42.41-2,.81-1.1,2-.92,3.2-.83a2.22,2.22,0,0,1,2,1.9,2.6,2.6,0,0,1-1.07,2.84C344,276,342.68,276.35,341.69,277.72Z"/><path class="cls-9" d="M215.55,277.76c1.07,0,2.14,0,3.21,0a.66.66,0,0,1,.67.83c-.05.44-.41.5-.73.5-1.41,0-2.83.11-4.23,0-1.6-.12-.95-1.25-.66-2,.55-1.45,2.12-1.76,3.2-2.64.73-.59,1.46-1.25.5-2.24s-1.66-.47-2.22.4c-.35.57-.59,1.41-1.39.87s-.16-1.21.12-1.78c.63-1.3,1.85-1.21,3-1.21a2.32,2.32,0,0,1,2.37,1.81,2.45,2.45,0,0,1-.93,2.87c-1,.73-2,1.37-3,2Z"/><path class="cls-10" d="M41.93,18.41c0-3.15.93-4.45,3.12-4.39s3,1.49,3,4.33-1.11,4.47-3.21,4.43S41.93,21.46,41.93,18.41Z"/><path class="cls-10" d="M479.56,274.66a6.81,6.81,0,0,1-.53,2.93,2.58,2.58,0,0,1-2.76,1.69,2.5,2.5,0,0,1-2.57-1.95,9.83,9.83,0,0,1-.16-4c.21-1.64.9-2.81,2.82-2.86s2.68,1.08,3.06,2.67A9.17,9.17,0,0,1,479.56,274.66Z"/><path class="cls-9" d="M468.56,277.37a8.18,8.18,0,0,0,.79.32c1.14.29,2.51-.56,3.44.68a.71.71,0,0,1-.21.58,10.68,10.68,0,0,1-5.39-.07c-.78-.28-.26-1.85.49-2.53a27,27,0,0,1,2.64-1.84c.55-.39,1.13-.84,1-1.6a1.45,1.45,0,0,0-1.17-1.17,1.29,1.29,0,0,0-1.53,1c-.23.62-.57,1.2-1.21.81s-.36-1.18,0-1.77c.64-1.26,1.83-1.27,3-1.25a2.41,2.41,0,0,1,2.43,1.76,2.36,2.36,0,0,1-.9,2.86C470.93,275.87,469.87,276.5,468.56,277.37Z"/><path class="cls-11" d="M226.18,274.69c0,3.24-.82,4.55-2.93,4.59s-3.12-1.38-3.18-4.2,1-4.52,3.07-4.56S226.15,271.65,226.18,274.69Z"/><path class="cls-12" d="M99.55,275.61c-1,.25-.82,1.12-1,1.79a2.6,2.6,0,0,1-2.86,1.88A2.53,2.53,0,0,1,93,277.12a8.74,8.74,0,0,1,0-4.4,2.86,2.86,0,0,1,5.54-.14c.15.61.12,1.36,1,1.56A1,1,0,0,1,99.55,275.61Z"/><path class="cls-11" d="M54.68,255.73c0,3.22-.84,4.53-3,4.55s-3.09-1.42-3.14-4.23,1-4.51,3.1-4.53S54.66,252.68,54.68,255.73Z"/><path class="cls-11" d="M54.68,18.31c0,3.2-.88,4.5-3,4.46-2,0-3.05-1.5-3.07-4.31S49.67,14,51.76,14,54.68,15.19,54.68,18.31Z"/><path class="cls-11" d="M54.68,137.18c0,3.25-.8,4.55-2.92,4.6s-3.13-1.38-3.19-4.19,1-4.53,3.06-4.57S54.65,134.14,54.68,137.18Z"/><path class="cls-9" d="M45.18,133.11c.41,0,.83,0,1.24,0s.91-.08,1,.49-.44.81-.95.87c-.33,0-.66,0-1,0-.66,0-1.49-.07-1.51.86,0,1.21,1,.52,1.5.58A2.59,2.59,0,0,1,48,138.25a2.85,2.85,0,0,1-1.45,3.18,3.4,3.4,0,0,1-3.75-.26c-.56-.38-1.09-1.07-.61-1.68.63-.8,1.08-.08,1.52.45a1.32,1.32,0,0,0,2.14.19,1.46,1.46,0,0,0,.43-2c-.53-.84-1.28-1.3-2.3-.62-1.74,1.15-1.69.16-1.55-1.23C42.76,133.11,42.72,133.11,45.18,133.11Z"/><path class="cls-13" d="M362.13,274.82c.14-.76.65-.66,1-.81.56-.25,1-.57.93-1.29a1.18,1.18,0,0,0-.76-.91c-.65-.3-1.12.05-1.53.5s-.48,1.87-1.44,1c-.81-.76-.07-1.78.69-2.3a3.54,3.54,0,0,1,3.57-.13,2,2,0,0,1,.92,2.58,3.64,3.64,0,0,0,.36,2.31,2.5,2.5,0,0,1-1.67,3.39c-1.61.52-3.15.45-4.08-1.29a1.16,1.16,0,0,1,.08-1.41c.37-.38.79-.17,1,.22.51.92,1,1.84,2.28,1.25.52-.25,1-.66.95-1.34C364.28,275.28,362.94,275.44,362.13,274.82Z"/><path class="cls-14" d="M88.22,277.41c1.27.92,3.54-.73,3.63,1.19,0,1-2.27.39-3.51.5-.68.06-1.68.42-2-.37a2.19,2.19,0,0,1,.84-2.44,20.87,20.87,0,0,1,2.45-1.69,1.67,1.67,0,0,0,1-1.83,1.27,1.27,0,0,0-1-1c-.78-.21-1.24.28-1.57.9s-.6,1.25-1.24.8-.31-1.23,0-1.81c.7-1.2,1.89-1.2,3.08-1.13a2.17,2.17,0,0,1,2.17,1.71,2.74,2.74,0,0,1-.79,3C90.35,276,89,276.25,88.22,277.41Z"/><path class="cls-15" d="M490.36,270.66c.61.2,1.93-.6,1.9.64,0,1.06-1.31.63-2.08.71s-1.48-.07-1.46.89.85.55,1.35.57a2.66,2.66,0,0,1,2.77,2,2.92,2.92,0,0,1-1,3.13,3.47,3.47,0,0,1-3.76.29c-.8-.34-1.52-1.14-.88-2s1.07.19,1.5.59a1.37,1.37,0,0,0,2.17,0,1.47,1.47,0,0,0,.26-2c-.53-.73-1.21-1.15-2.12-.57-2.15,1.36-1.88.08-1.69-1.44C487.52,271.65,487.65,269.89,490.36,270.66Z"/><path class="cls-16" d="M99.55,275.61v-1.47c.18-2.1.81-3.86,3.4-3.58s2.62,2.16,2.64,4.07a9.37,9.37,0,0,1,0,1.5c-.28,1.65-.84,3.11-2.88,3.13C100.21,279.29,99.68,277.6,99.55,275.61Z"/><path class="cls-14" d="M51.53,73.63c.78,0,1.28,0,1.78,0,.32,0,.68.06.73.49a.68.68,0,0,1-.68.83c-.41.05-.83,0-1.24.06-.62.06-1.49-.16-1.47.85s.84.57,1.34.6c1.28.09,2.3.54,2.58,1.9s.23,2.54-1,3.37a3.66,3.66,0,0,1-3.8.14c-.72-.34-1.48-1.17-.84-2s1.07.16,1.52.6a1.41,1.41,0,0,0,2.19.1,1.72,1.72,0,0,0,.28-2.08,1.37,1.37,0,0,0-2.1-.58c-2.33,1.39-1.88-.42-1.67-1.56C49.43,75,49.11,72.79,51.53,73.63Z"/><path class="cls-16" d="M352.59,274.8a6.08,6.08,0,0,1-.5,2.91,2.58,2.58,0,0,1-2.58,1.57c-2.11,0-3.1-1.63-3-4.81.11-2.77,1.25-4.11,3.36-3.94C351.79,270.69,352.59,272,352.59,274.8Z"/><path class="cls-14" d="M51.78,192.13c.49,0,1,0,1.49,0s.88.16.77.7a1,1,0,0,1-.65.61,8,8,0,0,1-1.48.08c-.58,0-1.28,0-1.27.81s.8.62,1.31.64c1.28.07,2.32.51,2.61,1.86s.25,2.54-.94,3.39a3.66,3.66,0,0,1-3.8.18c-.74-.34-1.48-1.17-.9-2s1.07.1,1.52.55a1.41,1.41,0,0,0,2.19.16,1.7,1.7,0,0,0,.32-2.07,1.33,1.33,0,0,0-2.07-.63c-2.24,1.36-1.89-.25-1.74-1.52C49.48,192.11,49.5,192.11,51.78,192.13Z"/><path class="cls-17" d="M46.09,75c-1.39,0-2.29,0-3.2,0a.73.73,0,0,1-.81-.75c0-.53.42-.65.85-.66h4c1.28,0,1.46.66.82,1.57a16.74,16.74,0,0,0-2.85,6c-.13.62-.52,1.09-1.25.83s-.32-.8-.23-1.25C43.78,78.81,44.87,77.13,46.09,75Z"/><path class="cls-18" d="M354,272.67c1.29-.53,2-2.39,3.07-1.83s.35,2.25.44,3.44,0,2.48,0,3.72c0,.52-.11,1-.76,1.07s-.76-.51-.77-1a24.68,24.68,0,0,1,0-2.72C356.06,273.94,355.79,272.9,354,272.67Z"/><path class="cls-19" d="M36,16.22c1.23-.63,2-2.36,3-1.9s.35,2.25.45,3.43a31.06,31.06,0,0,1,0,3.48c0,.55.12,1.28-.72,1.33S38,21.88,38,21.32a20.52,20.52,0,0,1,0-2.48C38.14,17.46,37.94,16.36,36,16.22Z"/><path class="cls-19" d="M227.49,272.61c1.42-.36,2-2.42,3.15-1.75s.28,2.29.38,3.5a15.56,15.56,0,0,1,0,2.73c-.07.71.48,2-.81,1.91s-.55-1.31-.68-2a4.38,4.38,0,0,1,0-1.49C229.76,274,229.36,272.94,227.49,272.61Z"/><path class="cls-20" d="M483.13,78.62c0-.33,0-.67,0-1H511v.51H486A4.74,4.74,0,0,0,483.13,78.62Z"/><path class="cls-21" d="M232.75,272.74c1.76-.69,2.49-2.29,3.43-1.9,1.13.47.37,2.06.48,3.15a28.7,28.7,0,0,1,0,3.47c0,.59.28,1.54-.69,1.56-1.18,0-.77-1-.84-1.68a9.09,9.09,0,0,1,0-1.73C235.25,274.27,235.27,273,232.75,272.74Z"/><path class="cls-21" d="M480.85,272.57c1.38-.35,1.91-2.31,3-1.67s.29,2.14.35,3.27c.06,1.32,0,2.64,0,4,0,.41-.07.86-.61.92s-.88-.34-.9-.89c0-.91,0-1.82,0-2.73C482.66,274.2,482.82,272.91,480.85,272.57Z"/><path class="cls-20" d="M86.47,77.62v.52H68.06v-.52Z"/><ellipse class="cls-22" cx="501.83" cy="137.38" rx="13.03" ry="0.37"/><ellipse class="cls-22" cx="77.26" cy="137.38" rx="13.02" ry="0.37"/><path class="cls-20" d="M492.62,197.14v-.52H511v.52Z"/><path class="cls-20" d="M86.47,196.62v.51H68.06v-.51Z"/><path class="cls-23" d="M108,276.25h2.42c0,1.14-.56,1.75-1.48,1.83s-1.23-.68-1.5-1.4Z"/><path class="cls-1" d="M93.13,19.13H467c1,.91.85,2.13.85,3.27q0,26.1,0,52.18a5.05,5.05,0,0,1-.65,3.13c-1.17.89-2.55.61-3.85.61q-29.89,0-59.78,0-48.42,0-96.85,0c-1.39,0-2.84.28-4.15-.47-1-1.12-.71-2.52-.71-3.81q0-20,0-40c0-1.72-.11-3.19-2.4-3.26-2.59-.08-3.19.41-3.19,3.15,0,13.15,0,26.3,0,39.46a12.91,12.91,0,0,1-.23,3.72,1.85,1.85,0,0,1-.59.76c-3.93.91-7.92.19-11.87.43-2.4,0-4.79,0-7.19,0q-59.9,0-119.78,0c-16.76,0-33.52,0-50.29,0-1.23,0-2.5.2-3.66-.43-1.13-1.15-.85-2.63-.86-4,0-9.06,0-18.12,0-27.18,0-3.87-1.29-4.66-4.93-3.12-.78.92-.57,2-.57,3.1,0,9.45,0,18.89,0,28.34,0,2.91-.67,3.39-3.09,2.6,0-11.54-.08-23.07-.09-34.6C93,35.06,93.1,27.1,93.13,19.13Z"/><path class="cls-1" d="M93.14,77.63c2.06.34,2.46-.66,2.44-2.54-.08-10,0-19.91,0-29.86,0-.88-.31-1.85.45-2.6,1,.92.83,2.13.84,3.28,0,3.83,0,7.66,0,11.5q0,96.6,0,193.21c0,1.69.5,3.54-.89,5h-.41c-1.08-1.28-.79-2.84-.79-4.31q0-24.74,0-49.46c0-1.77.09-3.54-1.61-4.72v-1a4.48,4.48,0,0,0,1.64-3.95q0-25.29,0-50.6a4.53,4.53,0,0,0-1.62-4c0-9.46-.1-18.92-.1-28.38C93.05,98.71,93.11,88.17,93.14,77.63Z"/><path class="cls-1" d="M93.14,197.13c2.08-.36,2.45.68,2.44,2.55-.06,18.65,0,37.3,0,55.94H93.13Q93.13,226.37,93.14,197.13Z"/><path class="cls-1" d="M93.15,137.63c1.79-.27,2.45.36,2.44,2.3q-.11,27,0,53.91c0,2-.69,2.54-2.46,2.29Q93.15,166.88,93.15,137.63Z"/><path class="cls-1" d="M476.47,137.12c-1.76.26-2.47-.31-2.47-2.28q.12-27.21,0-54.43c0-2,.71-2.54,2.47-2.28q.06,23.39.1,46.75C476.57,129,476.5,133,476.47,137.12Z"/><path class="cls-1" d="M476.47,196.62c-1.76.26-2.47-.31-2.47-2.28q.12-27.21,0-54.43c0-2,.71-2.54,2.47-2.28,0,11.34.09,22.67.09,34C476.57,180,476.51,188.29,476.47,196.62Z"/><path class="cls-1" d="M476.48,255.62c-1.75.26-2.48-.28-2.48-2.26q.12-27,0-54c0-2,.72-2.53,2.48-2.28q0,21,.09,42C476.57,244.63,476.51,250.12,476.48,255.62Z"/><path class="cls-1" d="M159.65,101.68c-1.06.73-.58,1.83-.58,2.75,0,10.06-.07,20.12,0,30.18,0,1.93-.46,2.85-2.48,2.51-1-.9-.86-2.12-.86-3.26q0-26.19,0-52.39c0-1.15-.09-2.35.75-3.33a3.86,3.86,0,0,1,2.2-.25q58,0,115.92,0a5.29,5.29,0,0,1,2,.15c.83.9.65,2,.65,3.09q0,26.48,0,53c0,3.33-.41,3.74-3.75,3.75-11.57,0-23.14,0-34.71,0a62.44,62.44,0,0,1-6.27,0c-4.29,0-8.59,0-12.89,0-2.08.09-4.16.07-6.24,0-14.56,0-29.12,0-43.67,0-1.23,0-2.51.22-3.66-.47-1-1.19-.79-2.66-.79-4,0-9,0-17.92,0-26.88,0-3.46,0-4.15-3.53-4.06A2.66,2.66,0,0,1,159.65,101.68Z"/><path class="cls-1" d="M422.49,137.12c-2,.34-2.5-.58-2.48-2.51.09-10.06.05-20.12,0-30.18,0-.92.47-2-.59-2.75a3.68,3.68,0,0,1-2.56.73c-2.9.22-3,.3-3,3.26,0,2.49,0,5,0,7.46,0,6.79,0,13.59,0,20.38,0,1.3.19,2.68-.76,3.81-2.48.52-3,.14-3.2-2.24,0-.5,0-1,0-1.5q0-26,0-52c0-3.71,0-3.71,3.77-3.71q25.36,0,50.73,0a8.63,8.63,0,0,1,2.73.15c.88,1,.78,2.16.78,3.31q0,26.34,0,52.67a5.25,5.25,0,0,1-.61,3.13,3.76,3.76,0,0,1-2.83.67q-15.93,0-31.88,0c-3.16,0-3.62-.49-3.68-3.58,0-2.41,0-4.82,0-7.23a3.35,3.35,0,0,0-.6-2.58,3.91,3.91,0,0,0-2.63-.53c-1.54-.06-2.29.63-2.3,2.21,0,2.67,0,5.33,0,8C423.26,135.16,423.43,136.29,422.49,137.12Z"/><path class="cls-1" d="M105.6,161.15c-1,.78-.53,1.86-.53,2.8,0,10.73,0,21.45,0,32.18a2.75,2.75,0,0,1-2.77-.18,6.44,6.44,0,0,1-.53-3.41q0-25.69,0-51.4c0-1.24-.12-2.52.67-3.62a4.67,4.67,0,0,1,3.12-.59q20.48,0,40.93,0c3.39,0,3.78.38,3.78,3.7q0,26.58,0,53.16a4.69,4.69,0,0,1-.53,2.89,4,4,0,0,1-2.85.64q-16.06,0-32.14,0a4.63,4.63,0,0,1-2.66-.48c-1-1.18-.8-2.65-.81-4q0-13.45,0-26.92c0-3.43,0-4.15-3.59-4A2.69,2.69,0,0,1,105.6,161.15Z"/><path class="cls-1" d="M213,255.62H175.55c-1.08-1.19-.79-2.67-.79-4,0-12.56,0-25.12,0-37.69,0-4,0-4-3.85-4.52a3.19,3.19,0,0,1-1.82-.73c-.92.8-.51,1.87-.51,2.81,0,13.9-.06,27.79,0,41.69,0,2-.53,2.8-2.51,2.49-.95-.92-.82-2.14-.83-3.29q0-26.09,0-52.17a5,5,0,0,1,.65-3.12,4.11,4.11,0,0,1,2.87-.62q20.73,0,41.48,0a4.5,4.5,0,0,1,2.89.55c.75.93.61,2,.61,3.11q0,26.24,0,52.47C213.74,253.62,213.93,254.76,213,255.62Z"/><path class="cls-1" d="M403.55,255.63c-11.67,0-23.33,0-35,0-1.95,0-2.55-.52-2.54-2.52q.12-22.5,0-45c0-5.25.86-4.48-4.69-4.53-.77,0-1.7-.34-2.26.59.89,1,.76,2.16.76,3.31q0,22.41,0,44.82c0,1.14.12,2.35-.81,3.28l-2.46,0c-.92-.85-.73-2-.73-3.05q0-26.19,0-52.38c0-3.38.37-3.75,3.72-3.75q20.58,0,41.16,0a4.56,4.56,0,0,1,2.89.54c.85,1.06.73,2.34.73,3.58q0,25.77,0,51.54C404.35,253.31,404.52,254.61,403.55,255.63Z"/><path class="cls-1" d="M149.55,255.63H112.09c-1-.92-.84-2.13-.85-3.28q0-26.07,0-52.13a4.73,4.73,0,0,1,.67-3.11,3.11,3.11,0,0,1,1.7-.22h34.53a3.49,3.49,0,0,1,1.47.16c.8.91.63,2,.63,3.1q0,26.21,0,52.41C150.24,253.62,150.43,254.76,149.55,255.63Z"/><path class="cls-1" d="M467,255.63H429.55c-.89-.87-.7-2-.7-3.06q0-26.32,0-52.63a4.56,4.56,0,0,1,.54-2.89,4.07,4.07,0,0,1,2.86-.62q16,0,32,0a4.5,4.5,0,0,1,2.89.55c.83,1.08.71,2.36.72,3.59q0,25.77,0,51.54C467.85,253.33,468,254.64,467,255.63Z"/><path class="cls-1" d="M340.11,255.63l-37.51,0c-.94-.84-.75-2-.75-3q0-26.31,0-52.63a4.56,4.56,0,0,1,.54-2.89,4.07,4.07,0,0,1,2.86-.62q16,0,32,0a4.49,4.49,0,0,1,2.89.55c.84,1.08.72,2.36.73,3.6q0,25.74,0,51.47C340.85,253.28,341,254.57,340.11,255.63Z"/><path class="cls-1" d="M276.49,255.61l-37.51,0c-.86-1-.74-2.17-.74-3.32q0-26,0-51.89a5.52,5.52,0,0,1,.65-3.37,4.07,4.07,0,0,1,2.86-.62q16,0,32,0a4.5,4.5,0,0,1,2.89.55c.74.93.6,2.05.6,3.12q0,26.24,0,52.47C277.24,253.62,277.44,254.77,276.49,255.61Z"/><path class="cls-24" d="M467,255.63q0-22.41.09-44.81c0-4.56-.06-9.13-.09-13.69a3.42,3.42,0,0,1-.49-.85,10.26,10.26,0,0,1-.27-3.22V141.19a10.59,10.59,0,0,1,.26-3.22,3.17,3.17,0,0,1,.5-.85q0-25.89.09-51.77c0-2.41-.06-4.81-.09-7.22-.15-.11-.2-.22-.15-.34s.1-.17.15-.17q0-24.27.09-48.54c0-3.32-.06-6.63-.09-9.95,2.1-1.1,4.35-.23,6.51-.49q0,29.73.06,59.46,0,87.08,0,174.15c0,3.9,0,3.92-4,3.86C468.71,256.1,467.73,256.49,467,255.63Z"/><path class="cls-25" d="M295.58,197.13v-.5a3.81,3.81,0,0,1-.83-2.8c0-18.88-.11-37.77.05-56.65-.14-18.91,0-37.82-.05-56.73a5.47,5.47,0,0,1,.28-2,3.36,3.36,0,0,1,.56-.83h0a5.92,5.92,0,0,0,.21-2.71c0-14,.06-28,0-42,0-2.05.51-2.71,2.61-2.62,3.91.15,3.92,0,3.92,4,0,11.91-.22,23.83,0,35.74.9,40.63.53,81.28.28,121.91-.14,20.81-.08,41.62-.32,62.43a2.79,2.79,0,0,1-.25,1.7c-2.14-.28-4.37.59-6.45-.5a4.41,4.41,0,0,1-.85-3.29q0-26,0-51.92A4.45,4.45,0,0,1,295.58,197.13Z"/><path class="cls-4" d="M102.61,137.64v58.49c.14.11.19.21.14.33s-.08.16-.13.16v.51c.83,1,.74,2.18.74,3.33q0,25.92,0,51.84a4.76,4.76,0,0,1-.74,3.32,9.46,9.46,0,0,1-6.65,0c0-12.23.08-24.46.08-36.7q0-86.52,0-173c0-1.08,0-2.16,0-3.24,1.69-.7,3.44-.28,5.16-.32s1.34,1.36,1.34,2.36c0,10,0,20,0,30,0,1,0,2,.08,3a3.83,3.83,0,0,1,.49.86,10.52,10.52,0,0,1,.25,3.21q0,25.94,0,51.87a10.56,10.56,0,0,1-.25,3.22A3.48,3.48,0,0,1,102.61,137.64Z"/><path class="cls-3" d="M156.51,78.16v57c0,.66.06,1.33.1,2v.51a4,4,0,0,1,.73,2.83q0,26.79,0,53.58a5.58,5.58,0,0,1-.23,1.72,3.52,3.52,0,0,1-.5.86v.51a4.73,4.73,0,0,1,.75,3.33q0,25.92,0,51.84c0,1.16.08,2.35-.75,3.32-2.1,1.11-4.34.24-6.5.49-.58-.93-.28-2-.28-2.93q0-56.37,0-112.74a8.32,8.32,0,0,0-.25-3.22,10,10,0,0,1-.21-3V82.09c0-.83,0-1.66.06-2.49a1.64,1.64,0,0,1,1.94-1.73c1.58.08,3.16,0,4.74,0Z"/><path class="cls-24" d="M283.5,255.63c-2.08,1.09-4.31.22-6.45.5a5.41,5.41,0,0,1-.23-2.7c0-18.25.39-36.51-.13-54.74-.54-18.91-.57-37.81-.22-56.69.4-20.66.12-41.3.29-61.95,0-1.79.56-2.35,2.28-2.19,1.32.13,2.66,0,4,0a1,1,0,0,1,.83.47,4.72,4.72,0,0,1,.48,2.42c0,18.78.1,37.56,0,56.34.15,18.9,0,37.8.06,56.7a3.82,3.82,0,0,1-.84,2.8v.5a4.46,4.46,0,0,1,.85,3.29q0,26,0,51.92A4.46,4.46,0,0,1,283.5,255.63Z"/><path class="cls-24" d="M403.55,255.63c0-11,.09-22.08.09-33.11,0-8.47-.06-16.93-.09-25.39a3.31,3.31,0,0,1-.51-.82,6.11,6.11,0,0,1-.22-.94q-.19-28.74,0-57.47c0-.32,0-.65,0-1-.15-18.73-.05-37.46-.05-56.2a5.18,5.18,0,0,1,.37-2.2,1.18,1.18,0,0,1,.75-.61c1.33,0,2.68.12,4,0,2.06-.27,2.47.59,2.46,2.51-.07,15.82-.31,31.66,0,47.48.83,41.22.18,82.44.41,123.67,0,1.56.26,3.18-.72,4.6C407.87,255.87,405.64,256.73,403.55,255.63Z"/><path class="cls-26" d="M413,137.12q0-16.07.1-32.12c0-3.71-.41-3.28,3.34-3.31h3c.05,11.9.14,23.8.15,35.69q0,57.67,0,115.35c0,3.93.54,3.38-3.46,3.38-1,0-2.18.45-3.08-.48a3.89,3.89,0,0,1-.77-2.81c0-18.46-.11-36.92.06-55.38v-1c-.15-18.92-.06-37.84-.05-56.75a5.36,5.36,0,0,1,.24-1.73A3.49,3.49,0,0,1,413,137.12Z"/><path class="cls-26" d="M166.07,197.13q0,28.63-.08,57.26c0,.41.06.82.08,1.24-1.77,1.07-3.71.28-5.57.47-.76.08-1-.45-1-1.13,0-.5,0-1,0-1.5q0-74.65,0-149.3c0-.83.08-1.66.12-2.49,6.33,0,6.32,0,6.34,6.31q0,14.57.08,29.13a3.49,3.49,0,0,1,.51.85,10,10,0,0,1,.27,3.22q0,25.94,0,51.88a10.3,10.3,0,0,1-.26,3.22A3.18,3.18,0,0,1,166.07,197.13Z"/><path class="cls-26" d="M293,137.54c-.63,1-.32,2.11-.32,3.17q0,56.11,0,112.24c0,1,.57,2.66-.51,3a17.37,17.37,0,0,1-5.2.08c-.42,0-.48-.61-.48-1,0-.75,0-1.5,0-2.25q0-56,0-112c0-1.06.3-2.17-.33-3.17a1.52,1.52,0,0,1-.31-.91c-.08-10.65,0-21.29,0-31.93,0-1.29-.2-2.85,1.34-3.47a6.18,6.18,0,0,1,5.1.11c1.21.6,1.1,2,1.11,3.11.07,5.49,0,11,0,16.47,0,5.23,0,10.47,0,15.71A1.51,1.51,0,0,1,293,137.54Z"/><path class="cls-5" d="M422.49,137.12c0-4,.16-7.9.06-11.85-.05-1.77.53-2.33,2.23-2.17,1.39.14,2.8,0,4.2.05a1.59,1.59,0,0,1,.31,1.17c.64,23.39.86,46.8.34,70.18-.44,19.65-.05,39.29-.35,58.93,0,.9.28,1.84-.29,2.68-2.16-.25-4.4.62-6.49-.49a4.7,4.7,0,0,1-.76-3.32q0-25.92,0-51.84a4.73,4.73,0,0,1,.75-3.33v-.51a3.22,3.22,0,0,1-.5-.86,10.88,10.88,0,0,1-.25-3.22q0-25.41,0-50.83c0-1.39-.24-2.85.74-4.08Z"/><path class="cls-3" d="M213.74,137.21h5.65a1.5,1.5,0,0,1,1.12.89,8.61,8.61,0,0,1,.34,3.19q0,25.77,0,51.54a9,9,0,0,1-.27,3,3.35,3.35,0,0,1-.52.84v.5a4.58,4.58,0,0,1,.79,3.31q0,25.94,0,51.88a4.54,4.54,0,0,1-.8,3.31c-2.09,1.09-4.32.23-6.47.49-.45-.6-.27-1.29-.27-1.94.32-37.67-.78-75.34-.45-113C212.87,139.82,212.4,138.3,213.74,137.21Z"/><path class="cls-5" d="M239,197.12c0,11.37-.08,22.74-.09,34.11,0,8.13.06,16.27.09,24.4-2.07,1.09-4.3.22-6.44.5a5.88,5.88,0,0,1-.7-3.37q0-56.16,0-112.33c0-1.13-.25-2.38.88-3.22h5.65c1.25,1,.85,2.45.86,3.73q0,27.62,0,55.25A1.93,1.93,0,0,1,239,197.12Z"/><path class="cls-3" d="M340.11,255.63q.06-23.4.1-46.81c0-3.9-.07-7.8-.1-11.7a2.17,2.17,0,0,1-.27-.93q0-27.56,0-55.1c0-1.45-.34-3,1-4.18a6.4,6.4,0,0,1,5.84.18,5.22,5.22,0,0,1,.52,3.15q0,56.13,0,112.27a6.23,6.23,0,0,1-.71,3.62C344.41,255.85,342.19,256.72,340.11,255.63Z"/><path class="cls-4" d="M229.52,255.63c-1.79,1.06-3.73.27-5.58.47-.59.06-.91-.32-.93-.92,0-.41,0-.83,0-1.24q0-45.91,0-91.81c0-.34,0-.67.08-1,1.73-1.25,3.63-.84,5.5-.56,1.05.16,1.48,1,1.64,2a20.12,20.12,0,0,1,.15,3.47c-.05,10.12.1,20.24-.07,30.36q0,.5,0,1c.15,18.49.05,37,.05,55.48A3.86,3.86,0,0,1,229.52,255.63Z"/><path class="cls-4" d="M356,256.12c-2.14-.27-4.37.61-6.45-.49a3.81,3.81,0,0,1-.83-2.8c0-18.47-.11-36.94.06-55.41v-1c-.16-10.82-.08-21.64,0-32.46,0-3,.73-3.59,3.77-3.63a5.62,5.62,0,0,1,3.61.66c.82,1.1.59,2.39.59,3.62,0,9.65.34,19.32-.05,28.95-.82,20.21-.13,40.41-.41,60.61A3.17,3.17,0,0,1,356,256.12Z"/><path class="cls-5" d="M112.09,197.13q0,24.27-.09,48.54c0,3.32.06,6.64.09,10-1.87,1-3.88.33-5.82.44-.49,0-.7-.36-.72-.82s0-.83,0-1.25q0-46,0-92.1c0-.25,0-.5.06-.75,6.4-.09,6.38-.09,6.4,6.39q0,14.53.09,29.08c.16.12.21.23.15.34S112.14,197.13,112.09,197.13Z"/><path class="cls-1" d="M229.52,196.63q0-16.11-.09-32.21c0-3.76.42-3.25-3.36-3.29h-3c-.92.8-.51,1.87-.51,2.81q-.06,16.09-.05,32.18a2.78,2.78,0,0,1-2.45,0q-.06-17.25-.1-34.49c0-8,0-16,0-24,3.71-.56,7.44-.12,11.16-.24,1.31-.05,1.13.92,1.14,1.73v9q0,23.31,0,46.62C232.28,197.21,231.92,197.44,229.52,196.63Z"/><path class="cls-5" d="M359,255.63q0-25.71,0-51.41c6.5-1,6.5-1,6.5,5.38,0,14.63-.06,29.26.07,43.89,0,2.31-.7,3-2.8,2.64C361.59,255.93,360.21,256.59,359,255.63Z"/><path class="cls-5" d="M169.07,208.64c6.38,0,6.37,0,6.38,6.26q0,20.35.1,40.73c-1.88,1-3.88.43-5.82.41-1.11,0-.72-1.14-.72-1.8q0-7.85,0-15.7Q169,223.58,169.07,208.64Z"/><path class="cls-22" d="M341.17,137.2c-1.13.76-.75,1.94-.75,3q0,26.79,0,53.58a6.12,6.12,0,0,1-.26,2.94l-.36-.32c-.72-1.32-.52-2.76-.52-4.17q0-24.36,0-48.73c0-.84,0-1.67,0-2.5.08-1.78-.71-2.56-2.52-2.54-3.75,0-7.5,0-11.25,0q-9.37,0-18.74,0c-3.2,0-3.36.15-3.36,3.41q0,25.25,0,50.49a13.65,13.65,0,0,1-.26,4,4,4,0,0,1-.5.84q0,29.22,0,58.45l-.56.52c0-.84.08-1.67.08-2.5q0-109.92,0-219.85c0-1,.57-2.67-.5-3a12.22,12.22,0,0,0-5.18,0c-.91.16-.52,1.45-.52,2.23q0,21,0,42c0,.9.24,1.84-.31,2.68,0-15.14,0-30.27-.08-45.41,0-1.63.5-2.19,2.14-2.15,6,.14,4.88-.68,4.9,4.82.07,14.23,0,28.45,0,42.67a3.67,3.67,0,0,1,.49.86,13.23,13.23,0,0,1,.27,4q0,24.09,0,48.19c0,6.36-.57,5.68,5.83,5.7,9.4,0,18.81,0,28.21,0C338.7,136.34,340.1,136.08,341.17,137.2Z"/><path class="cls-1" d="M286.09,137.14a.55.55,0,0,1,0,.4c0,18.8-.06,37.6,0,56.4,0,2-.37,3.06-2.56,2.69,0-10-.11-20.08-.1-30.13,0-9.79.08-19.58.12-29.37A1.81,1.81,0,0,1,286.09,137.14Z"/><path class="cls-1" d="M293,137.54a.55.55,0,0,1,0-.4,1.81,1.81,0,0,1,2.56,0c0,3.07.12,6.13.13,9.2q0,23.65,0,47.32c0,1-.08,2-.11,3-2.19.37-2.57-.73-2.56-2.69C293.07,175.14,293,156.34,293,137.54Z"/><path class="cls-1" d="M422.49,197.13q0,18,.09,36.09c0,7.47-.05,14.94-.08,22.4-2,.34-2.5-.57-2.49-2.5q.11-26.75,0-53.47C420,197.72,420.47,196.8,422.49,197.13Z"/><path class="cls-1" d="M413,197.13q0,28.63.08,57.26c0,.41-.05.82-.08,1.23h-2.44c-.41-.51-.27-1.11-.27-1.68q0-27.42,0-54.85C410.31,196.55,410.65,196.33,413,197.13Z"/><path class="cls-27" d="M349.59,197.12q0,29.25,0,58.51h-2.5c-.41-.5-.27-1.11-.27-1.68q0-27.47,0-54.93C346.81,196.54,347.18,196.31,349.59,197.12Z"/><path class="cls-1" d="M295.58,197.13c0,8.87.11,17.75.1,26.63,0,10.63-.05,21.25-.09,31.87-1.86.26-2.59-.35-2.58-2.42q.12-26.84,0-53.65C293,197.5,293.71,196.86,295.58,197.13Z"/><path class="cls-1" d="M283.5,255.63q-.06-21.4-.1-42.82c0-5.23.07-10.46.11-15.68,1.87-.27,2.58.36,2.57,2.43q-.12,26.82,0,53.65C286.09,255.28,285.36,255.89,283.5,255.63Z"/><path class="cls-28" d="M229.52,255.63q0-23.53-.09-47.06c0-3.82,0-7.63.08-11.45,1.66-.5,2.82-.59,2.82,1.84-.07,18.41,0,36.82,0,55.24a2,2,0,0,1-.28,1.43Z"/><path class="cls-29" d="M220.05,255.63q0-22.9-.09-45.81c0-4.23.06-8.46.1-12.69,1.93-.3,2.54.46,2.53,2.46q-.12,26.79,0,53.58C222.6,255.18,222,255.92,220.05,255.63Z"/><path class="cls-1" d="M156.6,255.62q0-26.62-.09-53.27c0-1.74.06-3.48.09-5.22,2-.33,2.49.59,2.48,2.52q-.09,26.73,0,53.47C159.09,255.05,158.61,256,156.6,255.62Z"/><path class="cls-30" d="M102.61,255.62V197.13c1.76-.25,2.49.29,2.48,2.27q-.11,27,0,54C105.1,255.35,104.36,255.88,102.61,255.62Z"/><path class="cls-1" d="M422.49,137.63c0,10,.09,20.08.09,30.12,0,9.46-.06,18.92-.09,28.38a2.78,2.78,0,0,1-2.42,0c0-18.66,0-37.32-.06-56C420,138.24,420.45,137.29,422.49,137.63Z"/><path class="cls-1" d="M156.6,196.13q0-23.65-.09-47.3c0-3.73.06-7.46.1-11.2,2-.34,2.48.6,2.47,2.52-.07,18.66-.05,37.32-.05,56A2.8,2.8,0,0,1,156.6,196.13Z"/><path class="cls-22" d="M239,196.69a6,6,0,0,1-.27-2.94q0-26.67,0-53.35a7,7,0,0,0-.29-3.19c11.82,0,23.64-.1,35.46,0,2,0,2.75-.37,2.74-2.57-.09-18.81-.06-37.63-.06-56.45-.16-.12-.21-.24-.15-.35s.12-.17.18-.17h7a.35.35,0,0,1-.14.59C277,77.58,277,77.58,277,84q0,84.43,0,168.86c0,1.08,0,2.16.08,3.25l-.55-.52V197.16a3.93,3.93,0,0,1-.49-.84,13.65,13.65,0,0,1-.26-4q0-25,0-50c0-3.89,0-3.92-3.87-3.93q-14.25,0-28.49,0c-3.35,0-3.52.16-3.52,3.54q0,24.86,0,49.73a14.24,14.24,0,0,1-.28,4.22A1.61,1.61,0,0,1,239,196.69Z"/><path class="cls-20" d="M413,197.13c-2-.32-2.52.52-2.51,2.49.08,18.66.06,37.33.07,56l-.55.51q0-29.73.08-59.46,0-57.58,0-115.18c0-3.9.52-3.37-3.47-3.41-1,0-2,.09-3,.14a.36.36,0,0,1-.19-.37c0-.14.06-.21.11-.21H467v.51c-17.91,0-35.82,0-53.73,0-2.25,0-2.78.65-2.76,2.82q.12,26.86,0,53.73c0,2,.51,2.82,2.5,2.49v.51a4.36,4.36,0,0,0-1.69,3.92q0,25.57,0,51.15a4.34,4.34,0,0,0,1.69,3.92Z"/><path class="cls-22" d="M349.59,197.12c-1.86-.25-2.6.34-2.59,2.42.09,18.7.07,37.39.08,56.09l-.53.5c0-.92.09-1.83.09-2.75q0-56.46,0-112.94a8.34,8.34,0,0,0-.25-3.22c.88-1,2.1-.89,3.24-.89q25.32,0,50.62,0a4.55,4.55,0,0,1,3.31.81v.5c-1.21,1-2.67.79-4.07.79q-22.83,0-45.68,0h-2c-3.87,0-3.94.09-3.94,3.87q0,23.59,0,47.18c0,1.17,0,2.34,0,3.5a4,4,0,0,0,1.72,3.65A.75.75,0,0,1,349.59,197.12Z"/><path class="cls-22" d="M429,256.11q0-29.37.05-58.73,0-37.11-.06-74.23c1.16,1.57.43,3.36.53,5a45.35,45.35,0,0,1,0,6.49c-.16,2.06.66,2.5,2.57,2.49,11.64-.08,23.29,0,34.93,0v.51c-1.11,1-2.5.79-3.81.79-9.74,0-19.48,0-29.22,0-3.5,0-3.61.11-3.61,3.68q0,25.11,0,50.21a12.94,12.94,0,0,1-.28,4,3.41,3.41,0,0,1-.52.83v58.5Z"/><path class="cls-22" d="M150,137.13c0,1.08.09,2.16.1,3.24V253.11c0,1,0,2,0,3l-.55-.48q0-29.25,0-58.5c-.18-.11-.24-.23-.18-.34s.12-.17.18-.17c0-18.83,0-37.65.05-56.48,0-1.92-.48-2.57-2.5-2.56-14.83.09-29.66.06-44.48.06v-.52a3.66,3.66,0,0,1,2.81-.78q21,0,42,0a5.58,5.58,0,0,1,1.72.23A2.34,2.34,0,0,1,150,137.13Z"/><path class="cls-22" d="M213.74,137.21a20.78,20.78,0,0,0-.22,2.23q0,57.7,0,115.43c0,.42.05.83.07,1.25l-.56-.5V197.15a3.8,3.8,0,0,1-.5-.85,13.24,13.24,0,0,1-.28-4q0-25,0-50c0-3.88,0-3.92-3.86-3.92-12.75,0-25.49,0-38.23,0-1.39,0-2.86.25-4.07-.79v-.51Z"/><path class="cls-20" d="M356,256.12q0-30.12.07-60.24c0-11.58-.06-23.16-.09-34.74,1.89.64,1.29,2.3,1.3,3.54.08,9,0,18.06.05,27.09a6.48,6.48,0,0,0,.44,3.4c.91,1.06,2.15.74,3.27.74,13,0,25.93,0,38.9,0,1.22,0,2.52-.23,3.57.7v.5c-14.75,0-29.5,0-44.25,0-2.2,0-2.81.56-2.79,2.78.09,18.58.06,37.17.07,55.75Z"/><path class="cls-22" d="M232,255.63c0-18.7,0-37.39.08-56.09,0-2.07-.72-2.68-2.58-2.42a.75.75,0,0,1,0-.49c1.9.28,2.57-.41,2.56-2.45q-.12-27.08,0-54.15c0-1.8-.41-2.53-2.35-2.44-3.24.15-6.49,0-9.73,0l-.6-.44h13.34a18.73,18.73,0,0,0-.26,2.21q0,57.74,0,115.46c0,.42.06.83.08,1.25Z"/><path class="cls-30" d="M102.62,196.62c0-.16,0-.33,0-.49H105C104.37,197,103.44,196.51,102.62,196.62Z"/><path class="cls-1" d="M156.6,196.13H159c-.67.83-1.61.37-2.42.49Z"/><path class="cls-29" d="M220.06,196.13h2.45c-.67.87-1.62.37-2.45.51Z"/><path class="cls-1" d="M420.07,196.13h2.42v.49C421.67,196.5,420.74,197,420.07,196.13Z"/><path class="cls-31" d="M110.57,273.48A1.43,1.43,0,0,1,109,275a1.46,1.46,0,0,1-1.4-1.69,1.52,1.52,0,0,1,1.57-1.56A1.46,1.46,0,0,1,110.57,273.48Z"/><path class="cls-32" d="M43.43,18.31a6.68,6.68,0,0,1,.17-1.57,3.68,3.68,0,0,1,.78-1.22.82.82,0,0,1,1.3,0c1.18,1.33,1,2.93.66,4.47-.13.71-.52,1.5-1.43,1.46a1.47,1.47,0,0,1-1.3-1.31A14.36,14.36,0,0,1,43.43,18.31Z"/><path class="cls-32" d="M475,274.22a5,5,0,0,1,.21-1.31,1.52,1.52,0,0,1,1.19-1.15c.8-.08,1.11.58,1.37,1.2a5.78,5.78,0,0,1,.21,2.94c-.12,1-.4,2.18-1.65,2.07-1-.1-1.32-1.13-1.33-2.12C475,275.52,475,275.19,475,274.22Z"/><path class="cls-33" d="M224.62,275a8.32,8.32,0,0,1,0,1,2.49,2.49,0,0,1-.2,1c-.32.58-.79,1.33-1.51,1-1.45-.7-1.36-2.16-1.3-3.49.06-1.17.22-2.45,1.66-2.7.72-.13,1.16.56,1.26,1.28s.12,1.32.17,2Z"/><path class="cls-34" d="M97.53,274.62c-.28,1.44,0,3.33-1.7,3.34s-1.64-1.86-1.62-3.12,0-3.07,1.73-3S97.09,273.71,97.53,274.62Z"/><path class="cls-33" d="M53.18,255.77c-.12,1.31.21,3.15-1.58,3.14-1.51,0-1.5-1.74-1.5-3s0-3.1,1.68-3.11S53,254.64,53.18,255.77Z"/><path class="cls-33" d="M53.17,18.19c0,.55,0,1-.08,1.55-.09.89-.48,1.69-1.44,1.74s-1.2-.79-1.39-1.52a6.61,6.61,0,0,1-.17-1.72c0-1.27.16-2.9,1.63-2.92C53.47,15.3,53,17.09,53.17,18.19Z"/><path class="cls-33" d="M53.12,138.16a4.41,4.41,0,0,1-.2,1.28,1.41,1.41,0,0,1-1.25,1.07c-.67,0-1-.51-1.24-1.06a5.23,5.23,0,0,1-.21-3.42c.22-.85.51-1.94,1.72-1.75,1,.15,1.14,1.08,1.18,1.95C53.13,136.64,53.12,137.06,53.12,138.16Z"/><path class="cls-35" d="M101.08,274a2.12,2.12,0,0,1,.18-1,2.15,2.15,0,0,1,.91-1.11c1.09-.48,1.49.4,1.77,1.18.66,1.81-.06,4.84-1.18,4.91s-1.53-.82-1.67-1.78A21,21,0,0,1,101.08,274Z"/><path class="cls-35" d="M351.08,274.94a9.8,9.8,0,0,1-.07,1.38c-.15.87-.55,1.69-1.52,1.66s-1.23-.77-1.37-1.55a8.17,8.17,0,0,1-.09-1.49c0-1.33-.09-3.1,1.62-3.09S351,273.6,351.08,274.94Z"/><path class="cls-20" d="M276.55,77.63l0,.52h-120v0c-.14-.13-.19-.26-.13-.38s.11-.17.17-.17Z"/><path class="cls-20" d="M156.55,77.63c0,.18,0,.36,0,.55C150,77.69,150,77.69,150,84q0,25.08,0,50.18c0,1-.06,2-.09,3h-.41c-1.07-1.29-.79-2.84-.79-4.31q0-24,0-48c0-.75,0-1.5,0-2.24,0-3.59-.07-3.66-3.6-3.67H109.42c-1.33,0-2.67,0-4,0a3.8,3.8,0,0,1-2.81-.78v-.52Z"/><path class="cls-20" d="M403.55,77.63c0,.19.06.38.08.58v0a5,5,0,0,1-3.33.77q-47.19,0-94.37,0c-1.15,0-2.36.1-3.32-.77,0-.19,0-.39,0-.58Z"/><path class="cls-20" d="M283.41,78.22l.14-.59,12,0a.52.52,0,0,1,0,.47c-1.2,1-2.67.88-4.05.79-2.7-.17-5.5.66-8.08-.72Z"/><path class="cls-20" d="M149.54,196.62v.51H112.09v-.51Z"/><path class="cls-20" d="M213,196.6v.55l-47,0c0-.17,0-.34,0-.51.95-.88,2.15-.79,3.3-.8q20.16,0,40.33,0C210.86,195.82,212.06,195.74,213,196.6Z"/><path class="cls-20" d="M429.55,197.13v-.51c1-.86,2.15-.79,3.3-.8q15.43,0,30.85,0c1.15,0,2.35-.1,3.3.79v.51Z"/><path class="cls-20" d="M302.59,197.16v-.57c1-.88,2.17-.76,3.32-.76q15.36,0,30.72,0c1.15,0,2.36-.13,3.33.74l.16.12a.5.5,0,0,1,0,.43Z"/><path class="cls-20" d="M276.49,196.59c0,.19,0,.38,0,.57l-37.52,0a.58.58,0,0,1,0-.43l.16-.12c1-.87,2.18-.74,3.33-.74q15.36,0,30.72,0C274.32,195.83,275.53,195.71,276.49,196.59Z"/><path class="cls-1" d="M467,196.62H429.55c0-18.83,0-37.66-.05-56.48,0-1.95.5-2.57,2.51-2.56,11.67.1,23.33,0,35,0q0,25.89.09,51.78C467.1,191.81,467,194.22,467,196.62Z"/><path class="cls-1" d="M283.45,78.19l12.13-.07c0,12.62.1,25.24.1,37.85,0,7-.08,14.11-.12,21.16H293c-.56-.84-.3-1.78-.3-2.68,0-10.07-.07-20.14,0-30.21,0-2.14-.66-2.69-2.7-2.6-4.12.18-3.6-.39-3.63,3.59,0,2.92,0,5.83,0,8.74,0,6.83,0,13.66,0,20.48,0,.9.26,1.84-.3,2.68h-2.56c0-3-.13-6-.13-9Q283.42,103.16,283.45,78.19Z"/><path class="cls-1" d="M102.61,78.14c14.75,0,29.49,0,44.23-.06,2.26,0,2.77.67,2.76,2.82-.09,18.74-.06,37.48-.06,56.22H102.61Z"/><path class="cls-1" d="M302.6,78.17h101q0,29.47-.07,59H349.63c-1.08,0-2.17.06-3.25.09l-5.21,0c-11.9,0-23.8-.1-35.69,0-2.19,0-3-.44-3-2.84C302.62,115.61,302.59,96.89,302.6,78.17Z"/><path class="cls-1" d="M356.59,196.13q0-16.09,0-32.19c0-.94.42-2-.53-2.8-6.35,0-6.34,0-6.35,6.28q0,14.61-.09,29.21c-1.9.28-2.56-.41-2.56-2.45q.12-27,0-53.91c0-2.34.83-2.69,2.89-2.68,17.88.07,35.77,0,53.66,0q0,22.16.09,44.31c0,4.73-.06,9.46-.1,14.19a2.74,2.74,0,0,1-1.69.24H358.29A2.78,2.78,0,0,1,356.59,196.13Z"/><path class="cls-1" d="M356.59,196.13h47v.5q-22.07,0-44.12,0C358.47,196.6,357.41,197,356.59,196.13Z"/><path class="cls-1" d="M413,196.62c-2,.33-2.51-.54-2.5-2.5q.11-27,0-54c0-2,.51-2.82,2.5-2.5q0,18.56.09,37.09C413.11,182,413.05,189.32,413,196.62Z"/><path class="cls-1" d="M213,196.6l-46.94,0q0-19-.09-38.08c0-7,0-13.94.08-20.91,14.75,0,29.49.05,44.24,0,2.22,0,2.79.59,2.78,2.79C213,159.12,213,177.86,213,196.6Z"/><path class="cls-1" d="M340,196.57l-37.37,0q0-28.36-.07-56.72c0-1.74.51-2.29,2.26-2.28,11,.07,22,0,33,0,1.46,0,2.3.17,2.29,2Q340,168.09,340,196.57Z"/><path class="cls-1" d="M276.49,196.59l-37.37,0q0-28.48-.08-57c0-1.54.53-2,2-2q16.74.08,33.48,0c1.53,0,2,.51,2,2Q276.49,168.11,276.49,196.59Z"/></g></g></svg>